SplineFontDB: 1.0
FontName: Purisa
FullName: Purisa
FamilyName: Purisa
Weight: Medium
Copyright: Purisa, Thai handwriting outline font. Copyright (C) 2003 Poonlap Veerathanabutr <poonlap@linux.thai.net>\n\nThis program is free software; you can redistribute it and/or modify it under the terms of the GNU General Public License as published by the Free Software Foundation; either version 1, or (at your option) any later version.\n\nThis program is distributed in the hope that it will be useful, but WITHOUT ANY WARRANTY; without even the implied warranty of MERCHANTABILITY or FITNESS FOR A PARTICULAR PURPOSE. See the GNU General Public License for more details.\n\nYou should have received a copy of the GNU General Public License along with this program; if not, write to the Free Software Foundation, Inc., 675 Mass Ave, Cambridge, MA 02139, USA.
Comments: 2003-11-27: Created.\n\nAcknowlegement:\nHanwriting by Ms.Purisa Cholasueksa. \nCo-operated by Mr.Teeratep Sosakul.
Version: 001.000
ItalicAngle: 0
UnderlinePosition: -100
UnderlineWidth: 50
Ascent: 800
Descent: 200
XUID: [1021 215 427847090 15454191]
FSType: 12
PfmFamily: 65
TTFWeight: 300
TTFWidth: 5
Panose: 2 0 6 3 0 0 0 0 0 0
LineGap: 90
VLineGap: 0
ScriptLang: 3
 1 thai 1 dflt 
 1 latn 1 dflt 
 1 DFLT 1 dflt 
LangName: 1033 "" "" "" "" "" "" "" "" "" "" "" "" "" "" "" "" "" "" "" "+AAoOIA45DiMONA4pDjIA +DhgONQ4jDkAOFw4e" 
Encoding: compacted
OldEncoding: unicode
DisplaySize: -72
AntiAlias: 1
WinInfo: 176 8 7
BeginChars: 226 226
StartChar: exclam
Encoding: 1 33 32767
OldEncoding: 33
Width: 412
Flags: HW
Fore
272 430 m 1
 272 365 246 301 231 238 c 0
 229 226 222 175 203 182 c 0
 186 187 192 224 189 238 c 0
 180 287 178 340 177 390 c 0
 176 402 164 420 173 432 c 0
 187 449 251 430 272 430 c 1
201 96 m 0
 263 112 269 19 224 4 c 0
 162 -18 137 79 201 96 c 0
EndSplineSet
EndChar
StartChar: quotedbl
Encoding: 2 34 32767
OldEncoding: 34
Width: 454
Flags: HW
Fore
253 585 m 1
 271 585 l 1
 287 558 335 389 288 380 c 0
 228 368 244 554 253 585 c 1
165 554 m 0
 208 577 247 406 211 380 c 0
 160 347 123 531 165 554 c 0
EndSplineSet
EndChar
StartChar: numbersign
Encoding: 3 35 32767
OldEncoding: 35
Width: 520
Flags: HW
Fore
307 330 m 1
 243 314 l 1
 226 173 l 1
 298 187 338 255 307 330 c 1
347 463 m 1
 391 455 384 427 380 389 c 1
 440 403 425 337 372 339 c 1
 347 206 l 1
 452 214 l 1
 443 154 387 176 350 142 c 0
 307 103 352 30 275 23 c 1
 283 131 l 1
 186 129 230 65 186 10 c 0
 153 -33 150 48 152 65 c 0
 153 82 154 98 154 115 c 1
 57 123 l 1
 158 178 l 1
 194 297 l 1
 81 289 l 1
 81 330 l 1
 113 335 174 339 194 366 c 0
 223 402 197 446 251 455 c 1
 259 364 l 1
 314 384 334 403 347 463 c 1
EndSplineSet
EndChar
StartChar: dollar
Encoding: 4 36 32767
OldEncoding: 36
Width: 499
Flags: HW
VStem: 229 57<405 420>
Fore
229 428 m 1
 191 384 159 330 229 302 c 1
 229 428 l 1
270 263 m 1
 245 74 l 1
 318 107 366 230 270 263 c 1
245 467 m 1
 249 517 247 595 310 600 c 1
 299 476 l 1
 374 380 l 1
 366 373 l 1
 286 420 l 1
 286 391 272 345 286 319 c 0
 314 267 378 258 371 184 c 0
 362 91 291 90 243 33 c 0
 213 -4 219 -70 213 -114 c 1
 173 -122 l 1
 183 57 l 1
 100 223 l 1
 149 215 169 161 189 121 c 1
 221 270 l 1
 89 294 139 447 245 467 c 1
EndSplineSet
MinimumDistance: x9,-1 
EndChar
StartChar: percent
Encoding: 5 37 32767
OldEncoding: 37
Width: 583
Flags: HW
Fore
501 449 m 1
 497 324 288 150 201 58 c 0
 181 38 111 -49 75 -29 c 0
 33 -6 130 76 146 92 c 0
 249 191 354 411 501 449 c 1
151 378 m 0
 206 396 221 292 165 278 c 0
 114 265 107 364 151 378 c 0
405 146 m 0
 472 170 461 56 405 39 c 0
 327 16 357 128 405 146 c 0
EndSplineSet
EndChar
StartChar: ampersand
Encoding: 6 38 32767
OldEncoding: 38
Width: 583
Flags: HW
Fore
194 309 m 1
 241 345 239 384 239 439 c 1
 178 416 176 364 194 309 c 1
194 196 m 1
 179 170 95 30 167 24 c 0
 210 21 271 74 310 92 c 1
 310 109 l 1
 194 196 l 1
382 118 m 1
 415 109 469 95 496 74 c 0
 514 60 516 31 488 28 c 0
 438 20 402 78 355 74 c 0
 283 69 191 -102 112 -9 c 0
 37 79 156 161 153 248 c 0
 149 304 107 356 130 413 c 0
 147 454 215 505 262 479 c 0
 337 436 246 317 235 265 c 0
 224 211 295 170 337 152 c 1
 346 170 450 328 463 255 c 0
 471 213 400 152 382 118 c 1
EndSplineSet
EndChar
StartChar: quotesingle
Encoding: 7 39 32767
OldEncoding: 39
Width: 487
Flags: HW
Fore
209 549 m 0
 233 565 314 558 319 523 c 0
 323 493 296 461 289 433 c 0
 284 414 286 379 268 366 c 0
 210 329 163 518 209 549 c 0
EndSplineSet
EndChar
StartChar: parenleft
Encoding: 8 40 32767
OldEncoding: 40
Width: 517
Flags: HW
Fore
348 670 m 1
 301 429 125 274 296 28 c 0
 309 9 416 -87 355 -105 c 0
 285 -125 214 24 192 72 c 0
 120 223 162 332 201 485 c 0
 221 565 254 656 348 670 c 1
EndSplineSet
EndChar
StartChar: parenright
Encoding: 9 41 32767
OldEncoding: 41
Width: 505
Flags: HW
Fore
155 654 m 1
 233 672 297 587 322 519 c 0
 377 371 372 182 315 36 c 0
 288 -32 253 -144 166 -121 c 1
 226 87 338 232 265 463 c 0
 241 535 184 586 155 654 c 1
EndSplineSet
EndChar
StartChar: asterisk
Encoding: 10 42 32767
OldEncoding: 42
Width: 613
Flags: HW
HStem: 382 21G<317 329>
Fore
267 505 m 1
 292 505 l 1
 317 382 l 1
 329 382 l 1
 337 402 442 551 452 476 c 0
 460 431 396 361 378 320 c 1
 502 330 539 295 415 233 c 1
 462 207 473 184 452 135 c 1
 329 209 l 1
 334 183 352 141 332 118 c 0
 314 95 191 53 178 91 c 0
 164 129 215 177 230 209 c 1
 107 246 l 1
 243 295 l 1
 186 381 119 554 243 394 c 1
 267 505 l 1
EndSplineSet
EndChar
StartChar: plus
Encoding: 11 43 32767
OldEncoding: 43
Width: 568
Flags: HW
VStem: 242 62<229 252>
Fore
232 315 m 1
 232 377 215 455 295 461 c 1
 304 315 l 1
 482 336 l 1
 497 246 366 260 304 252 c 1
 304 214 326 18 274 18 c 0
 220 18 242 214 242 252 c 1
 203 249 116 216 82 241 c 0
 18 292 210 314 232 315 c 1
EndSplineSet
MinimumDistance: x2,-1 
EndChar
StartChar: comma
Encoding: 12 44 32767
OldEncoding: 44
Width: 394
Flags: HW
Fore
119 -127 m 1
 109 -48 162 27 198 95 c 0
 208 115 233 166 263 145 c 0
 289 125 268 85 258 65 c 0
 229 2 190 -107 119 -127 c 1
EndSplineSet
EndChar
StartChar: hyphen
Encoding: 13 45 32767
OldEncoding: 45
Width: 739
Flags: HW
Fore
95 266 m 1
 106 411 392 368 501 361 c 0
 539 358 592 375 626 353 c 0
 727 287 501 271 472 275 c 0
 416 281 367 274 312 269 c 0
 240 262 167 266 95 266 c 1
EndSplineSet
EndChar
StartChar: period
Encoding: 14 46 32767
OldEncoding: 46
Width: 433
Flags: HW
Fore
224 137 m 4
 360 176 344 -46 219 -73 c 4
 66 -106 109 106 224 137 c 4
EndSplineSet
EndChar
StartChar: slash
Encoding: 15 47 32767
OldEncoding: 47
Width: 613
Flags: HW
Fore
463 677 m 0
 547 725 463 530 456 511 c 0
 399 350 308 182 228 31 c 0
 209 -5 176 -107 135 -119 c 0
 62 -139 150 13 159 31 c 0
 241 183 311 344 384 501 c 0
 401 540 426 656 463 677 c 0
EndSplineSet
EndChar
StartChar: zero
Encoding: 16 48 32767
OldEncoding: 48
Width: 450
Flags: HW
Fore
268 465 m 0
 172 434 120 263 104 171 c 0
 94 114 116 38 188 57 c 0
 284 82 343 253 347 345 c 0
 349 399 345 491 268 465 c 0
276 530 m 0
 351 550 399 445 397 381 c 0
 391 247 326 32 179 3 c 0
 99 -13 29 74 41 153 c 0
 58 277 148 496 276 530 c 0
EndSplineSet
EndChar
StartChar: one
Encoding: 17 49 32767
OldEncoding: 49
Width: 314
Flags: HW
VStem: -8937 1453<-74421.9 -49800.7>
Fore
182 446 m 1
 153 428 139 404 117 376 c 0
 108 364 37 300 48 358 c 0
 57 406 126 483 154 524 c 0
 164 539 182 564 202 550 c 0
 226 533 222 448 222 420 c 0
 222 318 228 215 230 114 c 0
 230 66 248 17 198 -1 c 1
 182 297 l 1
 182 446 l 1
EndSplineSet
MinimumDistance: x5,-1 
EndChar
StartChar: two
Encoding: 18 50 32767
OldEncoding: 50
Width: 583
Flags: HW
Fore
42 319 m 1
 42 437 262 584 368 494 c 0
 403 465 399 411 395 370 c 0
 386 259 301 128 223 51 c 1
 298 60 516 135 551 43 c 1
 456 18 347 21 249 3 c 0
 223 -1 166 -31 145 -4 c 0
 122 30 183 80 201 100 c 0
 270 178 345 298 349 405 c 0
 353 504 208 457 162 425 c 0
 119 394 89 344 42 319 c 1
EndSplineSet
EndChar
StartChar: three
Encoding: 19 51 32767
OldEncoding: 51
Width: 457
Flags: HW
Fore
48 456 m 5
 130 474 210 492 292 506 c 4
 316 510 366 527 376 491 c 4
 388 443 299 373 275 338 c 5
 305 337 331 333 354 310 c 4
 538 122 103 -165 103 111 c 5
 144 103 154 79 157 38 c 5
 252 38 425 167 314 270 c 4
 259 320 163 200 148 292 c 5
 292 446 l 5
 66 410 l 5
 48 456 l 5
EndSplineSet
EndChar
StartChar: four
Encoding: 20 52 32767
OldEncoding: 52
Width: 496
Flags: HW
Fore
249 396 m 1
 112 197 l 1
 234 222 308 254 249 396 c 1
267 179 m 1
 219 172 83 114 44 158 c 0
 22 183 56 222 71 242 c 0
 118 314 174 380 227 449 c 0
 244 470 303 563 344 538 c 0
 372 520 333 480 324 463 c 0
 294 409 311 310 322 252 c 1
 355 260 397 284 431 278 c 0
 454 277 476 252 454 233 c 0
 419 206 349 228 327 177 c 0
 303 122 366 32 339 -16 c 0
 319 -50 291 -12 285 8 c 0
 267 60 267 126 267 179 c 1
EndSplineSet
EndChar
StartChar: five
Encoding: 21 53 32767
OldEncoding: 53
Width: 458
Flags: HW
Fore
62 120 m 1
 175 -54 363 107 309 272 c 0
 267 396 165 210 114 252 c 0
 80 280 82 479 119 502 c 0
 141 517 173 505 198 506 c 0
 266 510 349 535 416 521 c 1
 416 504 l 1
 151 432 l 1
 144 317 l 1
 187 343 252 383 306 361 c 0
 418 314 361 94 296 31 c 0
 203 -59 56 -10 53 120 c 1
 62 120 l 1
EndSplineSet
EndChar
StartChar: six
Encoding: 22 54 32767
OldEncoding: 54
Width: 404
Flags: HW
Fore
210 225 m 0
 170 217 124 186 117 143 c 0
 110 104 126 38 176 45 c 0
 276 61 354 256 210 225 c 0
140 239 m 1
 173 252 202 274 237 273 c 0
 439 265 313 -4 167 -6 c 0
 -20 -6 98 314 124 405 c 0
 134 437 146 518 178 534 c 0
 233 562 182 405 176 388 c 0
 158 339 143 290 140 239 c 1
EndSplineSet
EndChar
StartChar: seven
Encoding: 23 55 32767
OldEncoding: 55
Width: 375
Flags: HW
Fore
106 315 m 1
 45 324 49 454 70 504 c 0
 85 541 270 571 302 550 c 0
 344 521 315 441 308 402 c 0
 293 300 270 200 247 99 c 0
 241 68 244 15 219 -9 c 0
 202 -29 180 -10 179 12 c 0
 176 59 197 115 207 160 c 0
 216 202 227 246 235 290 c 0
 247 358 261 429 263 498 c 1
 106 489 l 1
 106 315 l 1
EndSplineSet
EndChar
StartChar: eight
Encoding: 24 56 32767
OldEncoding: 56
Width: 398
Flags: HW
Fore
152 290 m 1
 178 301 200 315 223 335 c 0
 244 353 308 388 312 419 c 0
 317 451 266 481 240 486 c 0
 182 497 95 438 104 371 c 0
 107 341 133 314 152 290 c 1
162 197 m 0
 80 162 157 8 229 46 c 0
 293 79 219 220 162 197 c 0
178 520 m 0
 249 539 399 492 343 390 c 0
 318 344 240 313 230 261 c 0
 219 194 400 33 231 -6 c 0
 169 -21 75 62 75 125 c 0
 74 168 114 203 112 244 c 0
 110 280 71 309 61 344 c 0
 32 434 100 499 178 520 c 0
EndSplineSet
EndChar
StartChar: nine
Encoding: 25 57 32767
OldEncoding: 57
Width: 419
Flags: HW
VStem: -14966 2905<-28164.6 -23119.2>
Fore
297 508 m 1
 218 504 153 493 115 413 c 0
 102 387 89 339 114 316 c 0
 137 292 177 305 203 319 c 0
 282 358 297 426 297 508 c 1
280 319 m 1
 254 300 231 280 203 268 c 0
 135 240 46 277 50 361 c 0
 58 465 216 606 320 546 c 0
 361 522 357 471 348 431 c 0
 322 312 321 196 320 75 c 0
 320 23 350 -31 280 -37 c 1
 280 319 l 1
EndSplineSet
MinimumDistance: x7,-1 
EndChar
StartChar: colon
Encoding: 26 58 32767
OldEncoding: 58
Width: 319
Flags: HW
Fore
183 328 m 1
 170 321 161 299 147 295 c 0
 69 273 144 516 181 370 c 0
 183 356 183 342 183 328 c 1
143 104 m 0
 190 128 189 19 152 2 c 0
 112 -16 105 84 143 104 c 0
EndSplineSet
EndChar
StartChar: semicolon
Encoding: 27 59 32767
OldEncoding: 59
Width: 292
Flags: HW
Fore
162 345 m 0
 209 349 211 239 167 235 c 0
 109 229 100 341 162 345 c 0
167 102 m 0
 187 110 189 83 184 66 c 0
 176 34 144 -63 117 -72 c 0
 94 -80 98 -44 103 -28 c 0
 112 5 139 93 167 102 c 0
EndSplineSet
EndChar
StartChar: less
Encoding: 28 60 32767
OldEncoding: 60
Width: 433
Flags: HW
Fore
353 476 m 1
 294 427 238 374 182 321 c 0
 162 302 130 277 137 244 c 0
 152 174 244 111 292 71 c 0
 307 60 348 27 327 1 c 0
 306 -27 257 25 239 38 c 0
 190 73 28 202 66 280 c 0
 99 352 207 424 266 472 c 0
 298 499 334 530 353 476 c 1
EndSplineSet
EndChar
StartChar: equal
Encoding: 29 61 32767
OldEncoding: 61
Width: 409
Flags: HW
Fore
85 309 m 1
 112 309 139 315 166 317 c 0
 185 317 203 321 222 323 c 0
 235 324 315 323 281 292 c 0
 243 255 98 250 85 309 c 1
85 159 m 1
 98 234 264 214 319 200 c 1
 319 184 l 1
 244 151 165 159 85 159 c 1
EndSplineSet
EndChar
StartChar: greater
Encoding: 30 62 32767
OldEncoding: 62
Width: 472
Flags: HW
Fore
99 460 m 1
 156 466 185 429 226 397 c 0
 264 365 389 300 386 246 c 0
 384 220 357 192 342 170 c 0
 302 113 259 29 204 -14 c 0
 182 -32 162 -21 147 -5 c 1
 194 56 242 114 285 178 c 0
 298 198 327 227 318 253 c 0
 286 344 121 353 99 460 c 1
EndSplineSet
EndChar
StartChar: question
Encoding: 31 63 32767
OldEncoding: 63
Width: 502
Flags: HW
Fore
215 493 m 5
 226 532 274 532 276 486 c 4
 281 390 164 417 130 465 c 4
 89 523 126 583 177 612 c 4
 257 658 362 620 372 513 c 4
 374 488 368 461 357 438 c 4
 337 394 300 364 275 323 c 4
 259 298 276 199 246 194 c 4
 213 190 220 289 224 310 c 4
 238 393 359 424 331 527 c 4
 315 588 251 611 202 581 c 4
 179 567 143 540 152 506 c 4
 169 441 219 436 246 493 c 5
 215 493 l 5
284 65 m 5
 281 53 278 42 271 31 c 4
 213 -55 180 114 253 84 c 4
 264 79 274 72 284 65 c 5
EndSplineSet
EndChar
StartChar: at
Encoding: 32 64 32767
OldEncoding: 64
Width: 559
Flags: HW
Fore
425 173 m 1
 370 141 326 135 299 202 c 1
 272 187 255 156 225 144 c 0
 179 128 147 177 146 217 c 0
 143 301 261 435 331 333 c 0
 364 286 329 232 351 181 c 1
 425 232 l 1
 428 294 450 379 399 431 c 0
 294 539 126 405 109 290 c 0
 99 227 98 125 142 74 c 0
 247 -53 390 54 425 173 c 1
247 166 m 1
 262 212 270 289 321 304 c 1
 247 426 101 197 247 166 c 1
440 195 m 1
 485 180 461 133 447 101 c 0
 420 37 367 -20 292 -20 c 0
 227 -20 159 -9 112 39 c 0
 12 143 53 382 166 459 c 0
 262 524 417 523 461 399 c 0
 483 333 464 257 440 195 c 1
EndSplineSet
EndChar
StartChar: A
Encoding: 33 65 32767
OldEncoding: 65
Width: 586
Flags: HW
HStem: 510 94<353 360>
Fore
343 510 m 1
 249 288 l 1
 283 288 368 279 393 312 c 0
 421 348 373 470 360 510 c 1
 343 510 l 1
419 254 m 1
 371 252 256 254 223 217 c 0
 180 168 151 92 126 32 c 0
 117 13 102 -28 73 -19 c 0
 30 -6 109 103 119 126 c 0
 172 246 219 377 282 493 c 0
 298 522 317 595 353 604 c 0
 395 615 406 535 413 510 c 0
 445 401 456 287 487 177 c 0
 493 152 535 69 507 49 c 0
 487 38 466 60 458 75 c 0
 435 126 424 198 419 254 c 1
EndSplineSet
EndChar
StartChar: B
Encoding: 34 66 32767
OldEncoding: 66
Width: 520
Flags: HW
Fore
179 564 m 1
 195 336 l 1
 263 342 320 424 350 485 c 0
 361 507 380 544 361 566 c 0
 326 605 220 572 179 564 c 1
310 324 m 0
 281 318 230 306 211 279 c 0
 162 205 205 38 302 52 c 0
 430 70 470 354 310 324 c 0
55 546 m 1
 96 625 236 625 310 625 c 0
 345 625 387 628 407 589 c 0
 443 519 366 433 335 380 c 1
 506 361 478 121 367 36 c 0
 336 12 205 -14 180 24 c 0
 151 69 164 146 162 197 c 0
 157 310 129 422 129 538 c 1
 55 546 l 1
EndSplineSet
EndChar
StartChar: C
Encoding: 35 67 32767
OldEncoding: 67
Width: 577
Flags: HW
Fore
517 267 m 1
 506 54 138 -130 97 160 c 0
 77 286 84 473 174 565 c 0
 242 633 428 701 455 557 c 1
 426 562 404 586 376 590 c 0
 305 598 198 528 169 459 c 0
 128 356 108 67 262 66 c 0
 383 63 422 228 517 267 c 1
EndSplineSet
EndChar
StartChar: D
Encoding: 36 68 32767
OldEncoding: 68
Width: 679
Flags: HW
HStem: 565 65<236 310>
Fore
236 565 m 1
 276 60 l 1
 434 60 678 323 537 497 c 0
 475 574 322 565 236 565 c 1
286 -60 m 1
 258 -58 221 -54 205 -22 c 0
 191 9 223 49 225 82 c 0
 230 151 211 223 204 291 c 0
 197 349 205 481 174 527 c 0
 150 563 43 475 53 542 c 0
 66 630 227 630 286 630 c 0
 513 630 708 488 587 225 c 0
 550 148 494 85 427 43 c 0
 374 11 309 6 286 -60 c 1
EndSplineSet
EndChar
StartChar: E
Encoding: 37 69 32767
OldEncoding: 69
Width: 460
Flags: HW
Fore
130 50 m 1
 214 50 279 74 358 104 c 0
 375 109 401 117 405 89 c 0
 411 50 355 37 332 27 c 0
 271 -1 98 -58 80 50 c 0
 59 162 74 282 59 394 c 0
 55 438 38 500 61 540 c 0
 99 603 358 688 385 591 c 1
 315 589 146 575 114 492 c 0
 92 437 121 345 121 286 c 1
 174 316 239 325 297 338 c 0
 312 341 355 342 339 310 c 0
 306 242 179 286 135 231 c 0
 110 200 130 93 130 50 c 1
EndSplineSet
EndChar
StartChar: F
Encoding: 38 70 32767
OldEncoding: 70
Width: 478
Flags: HW
Fore
172 273 m 1
 172 234 176 197 179 159 c 0
 181 137 192 -20 141 18 c 0
 113 38 126 109 123 140 c 0
 111 249 53 451 104 555 c 0
 131 611 292 623 345 626 c 0
 363 626 404 632 416 611 c 0
 433 582 378 573 363 569 c 0
 293 558 224 537 153 531 c 1
 163 330 l 1
 372 340 l 1
 372 321 l 1
 172 273 l 1
EndSplineSet
EndChar
StartChar: G
Encoding: 39 71 32767
OldEncoding: 71
Width: 556
Flags: HW
Fore
417 190 m 1
 379 84 223 -80 113 21 c 0
 48 79 62 216 81 293 c 0
 119 445 233 527 354 591 c 0
 415 624 488 589 455 511 c 1
 436 511 l 1
 427 553 l 1
 289 522 165 404 129 252 c 0
 117 198 110 88 170 61 c 0
 254 23 338 140 367 210 c 0
 421 335 232 225 231 313 c 0
 231 375 347 362 379 356 c 0
 488 338 482 214 484 117 c 0
 484 86 503 22 472 5 c 0
 411 -28 427 159 427 190 c 1
 417 190 l 1
EndSplineSet
EndChar
StartChar: H
Encoding: 40 72 32767
OldEncoding: 72
Width: 529
Flags: HW
VStem: 408 58<171 228>
Fore
408 362 m 1
 349 346 189 303 155 245 c 0
 126 194 146 82 151 26 c 0
 153 6 154 -38 126 -37 c 0
 78 -36 88 93 87 127 c 0
 82 257 68 388 68 519 c 0
 68 578 58 642 117 664 c 1
 136 328 l 1
 382 432 l 1
 417 586 l 1
 501 555 466 261 466 172 c 0
 466 141 483 71 465 46 c 0
 415 -23 408 209 408 228 c 2
 408 362 l 1
EndSplineSet
MinimumDistance: x10,-1 
EndChar
StartChar: I
Encoding: 41 73 32767
OldEncoding: 73
Width: 466
Flags: HW
Fore
84 558 m 1
 300 620 l 1
 368 596 l 1
 281 506 l 1
 300 85 l 1
 319 95 395 108 359 59 c 0
 317 0 120 -64 103 44 c 1
 244 75 l 1
 234 548 l 1
 84 537 l 1
 84 558 l 1
EndSplineSet
EndChar
StartChar: J
Encoding: 42 74 32767
OldEncoding: 74
Width: 547
Flags: HW
HStem: 12 21G<236 246>
Fore
54 522 m 1
 165 560 400 660 509 609 c 1
 509 587 l 1
 466 565 383 563 363 510 c 0
 349 473 367 430 365 392 c 0
 361 302 347 209 337 120 c 0
 330 72 319 -4 274 -31 c 0
 195 -77 110 94 90 153 c 0
 80 182 70 229 104 243 c 0
 123 250 141 243 148 226 c 0
 181 151 190 87 236 12 c 1
 246 12 l 1
 322 158 307 348 307 511 c 1
 238 509 74 423 54 522 c 1
EndSplineSet
EndChar
StartChar: K
Encoding: 43 75 32767
OldEncoding: 75
Width: 619
Flags: HW
Fore
112 -46 m 1
 91 125 62 310 72 483 c 0
 75 522 58 612 82 642 c 0
 109 674 129 617 131 597 c 0
 139 521 141 436 142 359 c 1
 215 435 280 509 370 564 c 0
 385 573 482 621 462 560 c 0
 454 532 394 514 373 494 c 0
 301 426 217 356 172 265 c 1
 276 234 376 161 470 107 c 0
 518 78 563 66 579 6 c 1
 152 193 l 1
 162 -57 l 1
 112 -46 l 1
EndSplineSet
EndChar
StartChar: L
Encoding: 44 76 32767
OldEncoding: 76
Width: 562
Flags: HW
Fore
82 628 m 1
 138 595 125 534 130 474 c 0
 143 334 141 193 157 54 c 1
 243 54 326 82 410 103 c 0
 455 114 496 136 522 84 c 1
 438 27 329 13 232 -3 c 0
 198 -9 143 -18 116 10 c 0
 82 43 91 122 91 166 c 0
 91 308 45 492 82 628 c 1
EndSplineSet
EndChar
StartChar: M
Encoding: 45 77 32767
OldEncoding: 77
Width: 577
Flags: HW
HStem: 387 21G<126 136>
Fore
75 -56 m 1
 19 87 55 319 55 475 c 0
 55 512 38 634 94 634 c 0
 123 634 129 586 136 564 c 0
 150 515 183 349 237 338 c 0
 294 328 366 531 390 574 c 0
 406 604 441 652 476 623 c 0
 508 595 500 536 505 497 c 0
 518 376 498 254 511 132 c 0
 514 105 550 -5 501 -4 c 0
 456 -2 456 87 453 121 c 0
 441 257 469 398 430 531 c 1
 378 384 227 113 136 387 c 1
 126 387 l 1
 126 251 155 70 105 -56 c 1
 75 -56 l 1
EndSplineSet
EndChar
StartChar: N
Encoding: 46 78 32767
OldEncoding: 78
Width: 658
Flags: HW
Fore
122 26 m 1
 16 49 59 387 71 478 c 0
 75 511 62 601 104 616 c 0
 156 636 209 534 229 500 c 0
 316 353 383 171 502 49 c 1
 527 180 525 311 538 444 c 0
 541 471 541 575 591 559 c 0
 635 545 611 463 605 432 c 0
 589 329 587 221 582 116 c 0
 580 79 578 15 543 -8 c 0
 490 -42 421 22 394 60 c 0
 306 177 201 375 156 511 c 1
 145 511 l 1
 122 26 l 1
EndSplineSet
EndChar
StartChar: O
Encoding: 47 79 32767
OldEncoding: 79
Width: 520
Flags: HW
Fore
315 513 m 0
 179 489 98 367 106 226 c 0
 113 144 166 19 263 36 c 0
 385 58 440 279 438 388 c 0
 435 462 388 526 315 513 c 0
325 585 m 0
 417 612 474 514 481 431 c 0
 492 287 455 29 293 -16 c 0
 140 -58 35 117 46 259 c 0
 58 421 176 542 325 585 c 0
EndSplineSet
EndChar
StartChar: P
Encoding: 48 80 32767
OldEncoding: 80
Width: 517
Flags: HW
Fore
273 579 m 0
 241 573 184 571 168 536 c 0
 143 483 147 320 221 327 c 0
 393 340 512 612 273 579 c 0
47 496 m 1
 36 549 80 614 131 630 c 0
 293 682 595 625 429 385 c 0
 403 348 373 318 334 298 c 0
 282 273 237 264 181 264 c 1
 181 181 234 -24 140 -55 c 1
 109 118 78 356 109 529 c 1
 47 496 l 1
EndSplineSet
EndChar
StartChar: Q
Encoding: 49 81 32767
OldEncoding: 81
Width: 604
Flags: HW
Fore
252 220 m 1
 300 272 357 202 413 188 c 1
 430 245 446 302 461 359 c 0
 498 497 363 555 253 519 c 0
 104 471 8 63 201 21 c 0
 252 10 374 35 363 114 c 0
 357 164 290 199 252 220 c 1
413 82 m 1
 358 -39 187 -101 97 20 c 0
 23 119 27 279 69 391 c 0
 118 519 216 581 342 593 c 0
 395 598 441 612 477 561 c 0
 560 441 492 259 453 135 c 1
 514 103 571 59 585 -14 c 1
 413 82 l 1
EndSplineSet
EndChar
StartChar: R
Encoding: 50 82 32767
OldEncoding: 82
Width: 505
Flags: HW
DStem: 104 488 163 528 120 289 182 289
Fore
163 528 m 1
 182 289 l 1
 290 318 361 386 387 498 c 1
 163 528 l 1
104 488 m 1
 15 445 73 574 135 585 c 0
 200 597 407 585 430 508 c 0
 465 380 283 267 192 229 c 1
 264 194 481 149 456 39 c 1
 182 169 l 1
 182 108 223 -7 143 -21 c 1
 123 189 l 1
 83 227 l 1
 120 289 l 1
 104 488 l 1
EndSplineSet
MinimumDistance: x1,-1 
EndChar
StartChar: S
Encoding: 51 83 32767
OldEncoding: 83
Width: 460
Flags: HW
Fore
139 171 m 1
 135 144 114 103 128 78 c 0
 175 8 358 71 345 160 c 0
 327 290 0 237 56 436 c 0
 94 569 382 676 409 489 c 1
 313 532 247 568 159 478 c 0
 135 453 103 413 121 375 c 0
 178 256 449 319 396 118 c 0
 389 95 379 73 364 55 c 0
 319 9 157 -31 106 19 c 0
 52 71 63 161 139 171 c 1
EndSplineSet
EndChar
StartChar: T
Encoding: 52 84 32767
OldEncoding: 84
Width: 661
Flags: HW
Fore
36 519 m 1
 143 554 265 559 376 578 c 0
 465 592 546 621 635 592 c 1
 616 528 447 528 385 519 c 1
 425 391 423 241 429 108 c 0
 430 90 448 -68 400 -23 c 0
 375 2 379 66 375 99 c 0
 363 199 394 409 326 489 c 0
 266 559 71 409 36 519 c 1
EndSplineSet
EndChar
StartChar: U
Encoding: 53 85 32767
OldEncoding: 85
Width: 538
Flags: HW
Fore
398 597 m 1
 486 607 499 473 499 407 c 0
 499 255 455 48 287 -2 c 0
 75 -65 81 302 75 427 c 0
 73 484 58 566 115 597 c 1
 150 479 143 339 160 216 c 0
 166 170 166 105 202 69 c 0
 260 10 355 110 385 156 c 0
 481 303 424 444 398 597 c 1
EndSplineSet
EndChar
StartChar: V
Encoding: 54 86 32767
OldEncoding: 86
Width: 589
Flags: HW
Fore
307 102 m 1
 339 169 371 237 392 309 c 0
 405 352 416 396 434 440 c 0
 452 483 464 541 494 578 c 0
 513 603 545 592 549 559 c 0
 555 438 441 243 392 134 c 0
 375 96 353 4 296 8 c 0
 246 12 227 106 212 145 c 0
 173 246 138 349 100 450 c 0
 87 486 50 531 53 570 c 0
 56 608 91 605 111 581 c 0
 142 544 156 483 176 440 c 0
 194 396 210 352 224 309 c 0
 248 238 273 167 307 102 c 1
EndSplineSet
EndChar
StartChar: W
Encoding: 55 87 32767
OldEncoding: 87
Width: 697
Flags: HW
Fore
611 630 m 1
 677 616 661 562 650 508 c 0
 627 392 601 276 580 160 c 0
 574 132 567 23 520 37 c 0
 485 48 461 108 448 140 c 0
 423 216 392 276 336 334 c 1
 316 251 253 -26 163 -34 c 1
 138 85 122 207 91 324 c 0
 71 400 29 502 51 579 c 1
 101 553 101 507 115 457 c 0
 145 347 178 234 183 120 c 1
 252 183 281 535 421 344 c 0
 435 324 447 304 458 283 c 0
 483 236 488 187 530 150 c 1
 611 630 l 1
EndSplineSet
EndChar
StartChar: X
Encoding: 56 88 32767
OldEncoding: 88
Width: 604
Flags: HW
Fore
29 594 m 1
 123 607 260 442 299 366 c 1
 321 366 l 1
 354 439 422 575 516 561 c 1
 488 477 383 407 383 312 c 0
 383 209 547 178 563 84 c 0
 570 37 518 48 494 66 c 0
 438 105 375 174 343 236 c 1
 285 166 256 79 202 8 c 0
 185 -12 136 -37 134 8 c 0
 130 108 293 202 263 301 c 0
 229 418 69 475 29 594 c 1
EndSplineSet
EndChar
StartChar: Y
Encoding: 57 89 32767
OldEncoding: 89
Width: 580
Flags: HW
Fore
497 622 m 1
 582 590 527 495 500 435 c 0
 438 310 365 200 311 71 c 0
 295 36 275 -55 240 -73 c 0
 214 -86 199 -56 201 -33 c 0
 206 19 244 86 267 133 c 0
 290 182 315 229 335 279 c 1
 258 316 35 510 72 602 c 1
 83 602 l 1
 275 414 l 2
 295 393 331 351 365 358 c 0
 440 373 479 560 497 622 c 1
EndSplineSet
EndChar
StartChar: Z
Encoding: 58 90 32767
OldEncoding: 90
Width: 740
Flags: HW
Fore
30 452 m 1
 61 547 314 562 403 565 c 0
 449 566 514 571 528 518 c 0
 544 457 492 389 455 346 c 0
 384 265 277 170 256 63 c 1
 620 82 l 1
 652 120 744 98 695 63 c 0
 610 4 408 -3 305 -3 c 0
 269 -3 187 -16 183 35 c 0
 177 80 219 132 242 167 c 0
 312 278 451 378 472 509 c 1
 286 502 l 1
 30 452 l 1
EndSplineSet
EndChar
StartChar: bracketleft
Encoding: 59 91 32767
OldEncoding: 91
Width: 385
Flags: HW
Fore
179 -7 m 1
 196 -4 213 -1 231 0 c 0
 379 7 203 -98 146 -41 c 0
 104 0 119 137 119 192 c 0
 118 263 111 336 102 406 c 0
 98 438 87 489 106 518 c 0
 134 559 225 559 268 552 c 1
 260 503 169 493 127 490 c 1
 127 483 l 1
 149 353 l 1
 179 -7 l 1
EndSplineSet
EndChar
StartChar: backslash
Encoding: 60 92 32767
OldEncoding: 92
Width: 550
Flags: HW
Fore
51 524 m 0
 83 551 133 456 149 437 c 0
 237 333 316 223 396 112 c 0
 408 92 486 -2 453 -23 c 0
 416 -46 379 43 365 64 c 0
 284 179 198 289 109 398 c 0
 93 418 20 498 51 524 c 0
EndSplineSet
EndChar
StartChar: bracketright
Encoding: 61 93 32767
OldEncoding: 93
Width: 427
Flags: HW
Fore
118 505 m 1
 152 527 237 559 270 522 c 0
 310 480 297 354 298 300 c 0
 300 227 305 154 305 80 c 0
 305 56 312 17 298 -4 c 0
 272 -42 175 -34 139 -22 c 1
 139 -7 l 1
 256 39 l 1
 264 139 l 1
 254 388 l 1
 231 486 l 1
 118 491 l 1
 118 505 l 1
EndSplineSet
EndChar
StartChar: asciicircum
Encoding: 62 94 32767
OldEncoding: 94
Width: 355
Flags: HW
Fore
53 459 m 1
 65 504 123 632 167 627 c 0
 193 623 306 516 285 479 c 0
 261 436 190 570 164 565 c 0
 116 556 113 462 53 459 c 1
EndSplineSet
EndChar
StartChar: underscore
Encoding: 63 95 32767
OldEncoding: 95
Width: 475
Flags: HW
Fore
34 10 m 1
 84 11 137 16 187 23 c 0
 221 27 254 29 288 33 c 0
 326 38 360 45 399 43 c 0
 409 42 441 32 422 16 c 0
 404 1 361 10 341 10 c 0
 272 6 203 -8 134 -13 c 0
 101 -16 46 -35 34 10 c 1
EndSplineSet
EndChar
StartChar: grave
Encoding: 64 96 32767
OldEncoding: 96
Width: 334
Flags: HW
Fore
202 431 m 1
 181 437 166 446 149 461 c 0
 140 470 131 478 123 488 c 0
 114 497 70 549 109 547 c 0
 148 546 208 468 202 431 c 1
EndSplineSet
EndChar
StartChar: a
Encoding: 65 97 32767
OldEncoding: 97
Width: 442
Flags: HW
Fore
205 189 m 0
 112 166 72 9 198 41 c 0
 242 52 307 94 317 140 c 0
 331 193 239 197 205 189 c 0
79 337 m 1
 98 405 282 471 341 414 c 0
 415 341 379 197 380 107 c 0
 380 65 398 35 373 -4 c 1
 331 17 338 61 338 101 c 1
 331 101 l 1
 296 28 118 -66 79 55 c 0
 30 205 243 263 345 186 c 1
 345 238 363 395 275 394 c 0
 207 394 144 326 79 337 c 1
EndSplineSet
EndChar
StartChar: b
Encoding: 66 98 32767
OldEncoding: 98
Width: 520
Flags: HW
Fore
351 377 m 4
 250 361 184 244 168 157 c 4
 161 115 159 26 221 28 c 4
 328 32 408 159 425 248 c 4
 434 300 427 389 351 377 c 4
152 281 m 5
 189 318 221 360 265 390 c 4
 349 448 457 437 470 323 c 4
 486 188 364 -36 196 -16 c 4
 161 -12 123 7 113 40 c 4
 95 98 113 171 109 232 c 4
 101 326 78 420 75 514 c 4
 73 570 40 655 109 681 c 5
 144 568 152 398 152 281 c 5
EndSplineSet
EndChar
StartChar: c
Encoding: 67 99 32767
OldEncoding: 99
Width: 452
Flags: HW
DStem: 496 1002 496 1002 505 994 505 994
Fore
496 1002 m 5
 505 994 l 5
 496 1002 l 5
420 184 m 5
 404 53 211 -64 91 38 c 4
 37 84 33 176 38 239 c 4
 48 328 137 423 233 433 c 4
 325 443 416 373 394 286 c 5
 321 309 308 436 191 379 c 4
 81 326 19 65 191 45 c 4
 297 32 329 171 420 184 c 5
EndSplineSet
EndChar
StartChar: d
Encoding: 68 100 32767
OldEncoding: 100
Width: 568
Flags: HW
VStem: 420 73<161 213>
Fore
241 367 m 4
 88 317 53 -12 259 53 c 4
 317 71 419 143 420 211 c 4
 420 278 315 392 241 367 c 4
435 317 m 5
 460 423 444 546 444 655 c 4
 444 709 437 770 503 780 c 5
 503 574 491 368 493 162 c 4
 493 123 532 -17 490 -39 c 4
 435 -66 438 95 435 124 c 5
 398 85 363 46 317 18 c 4
 294 5 267 -5 239 -8 c 4
 -81 -51 67 544 337 404 c 4
 376 383 405 350 435 317 c 5
EndSplineSet
MinimumDistance: x6,-1 
EndChar
StartChar: e
Encoding: 69 101 32767
OldEncoding: 101
Width: 490
Flags: HW
Fore
95 258 m 1
 133 258 169 261 206 265 c 0
 242 270 337 275 353 312 c 0
 372 358 283 399 246 399 c 0
 168 399 105 327 95 258 c 1
459 168 m 1
 370 -98 -8 -24 43 258 c 0
 69 407 309 528 392 347 c 0
 452 216 167 220 88 220 c 1
 88 193 86 165 98 138 c 0
 106 119 119 102 133 86 c 0
 256 -45 348 128 452 176 c 1
 459 168 l 1
EndSplineSet
EndChar
StartChar: f
Encoding: 70 102 32767
OldEncoding: 102
Width: 496
Flags: HW
Fore
177 362 m 5
 163 357 150 351 136 346 c 4
 119 343 24 339 66 378 c 4
 100 409 169 392 183 444 c 4
 209 537 148 704 235 774 c 4
 277 807 376 797 416 765 c 4
 458 731 457 680 409 655 c 5
 408 725 316 799 259 727 c 4
 219 676 217 523 229 460 c 4
 244 381 343 472 368 403 c 5
 332 395 266 386 240 358 c 4
 207 322 227 214 227 167 c 4
 227 116 282 8 210 -4 c 5
 177 362 l 5
EndSplineSet
EndChar
StartChar: g
Encoding: 71 103 32767
OldEncoding: 103
Width: 559
Flags: HW
Fore
343 400 m 4
 236 390 140 300 109 208 c 4
 89 146 123 51 207 60 c 4
 313 71 387 186 414 271 c 4
 435 337 440 410 343 400 c 4
411 164 m 5
 368 47 139 -72 69 92 c 4
 -5 267 253 532 449 425 c 4
 527 382 478 309 471 244 c 4
 454 105 482 -47 496 -185 c 4
 502 -240 506 -317 430 -326 c 4
 364 -335 244 -290 200 -245 c 132
 156 -200 200 -141 255 -132 c 5
 251 -157 238 -187 254 -210 c 4
 277 -245 408 -299 438 -255 c 4
 458 -225 440 -182 440 -150 c 4
 437 -45 420 59 420 164 c 5
 411 164 l 5
EndSplineSet
EndChar
StartChar: h
Encoding: 72 104 32767
OldEncoding: 104
Width: 427
Flags: HW
VStem: 333 45<132 222>
Fore
58 658 m 5
 76 658 l 5
 126 553 111 364 111 248 c 5
 120 248 l 5
 135 286 154 316 182 346 c 4
 199 364 217 382 236 398 c 4
 386 521 378 215 378 141 c 4
 378 111 393 19 364 0 c 4
 324 -25 333 114 333 132 c 4
 333 165 333 198 333 230 c 4
 332 283 311 330 307 382 c 5
 238 328 171 261 146 177 c 4
 127 112 137 43 111 -19 c 5
 56 11 78 87 75 141 c 4
 66 263 54 384 49 507 c 4
 46 562 33 605 58 658 c 5
EndSplineSet
MinimumDistance: x6,-1 
EndChar
StartChar: i
Encoding: 73 105 32767
OldEncoding: 105
Width: 220
Flags: HW
Fore
104 661 m 4
 135 676 158 622 126 611 c 4
 98 602 76 647 104 661 c 4
120 464 m 5
 138 409 138 353 145 295 c 4
 149 255 149 215 149 175 c 4
 149 152 148 129 149 106 c 4
 151 86 149 -35 103 22 c 4
 85 45 92 88 89 116 c 4
 80 195 40 433 120 464 c 5
EndSplineSet
EndChar
StartChar: j
Encoding: 74 106 32767
OldEncoding: 106
Width: 370
Flags: HW
Fore
216 594 m 5
 125 613 237 690 216 594 c 5
200 448 m 5
 257 439 255 348 263 302 c 4
 284 178 303 48 286 -76 c 4
 281 -114 287 -158 259 -188 c 4
 164 -289 12 -169 71 -52 c 5
 87 -52 l 5
 99 -80 93 -128 115 -148 c 4
 187 -211 239 -129 241 -68 c 4
 245 108 200 274 200 448 c 5
EndSplineSet
EndChar
StartChar: k
Encoding: 75 107 32767
OldEncoding: 107
Width: 412
Flags: HW
Fore
125 129 m 1
 125 104 149 -8 108 -6 c 0
 63 -5 74 102 73 129 c 0
 65 243 55 357 47 471 c 0
 45 511 25 571 45 610 c 0
 68 654 89 578 91 563 c 0
 98 466 116 368 116 271 c 1
 144 291 167 313 193 338 c 0
 210 354 227 370 243 388 c 0
 253 399 342 471 320 406 c 0
 300 346 227 291 180 253 c 0
 164 241 135 220 139 196 c 0
 142 174 175 166 193 159 c 0
 242 137 299 112 337 76 c 0
 396 18 312 37 280 58 c 0
 260 70 240 81 218 91 c 0
 188 104 156 115 125 129 c 1
EndSplineSet
EndChar
StartChar: l
Encoding: 76 108 32767
OldEncoding: 108
Width: 238
Flags: HW
HStem: 758 20G<92 110>
Fore
92 778 m 5
 110 778 l 5
 160 605 155 373 156 193 c 4
 156 164 189 13 146 13 c 4
 98 13 110 161 110 193 c 4
 101 378 38 595 92 778 c 5
EndSplineSet
EndChar
StartChar: m
Encoding: 77 109 32767
OldEncoding: 109
Width: 850
Flags: HW
HStem: 420 20G<54 88>
VStem: 740 56<45 207>
Fore
54 440 m 1
 88 440 l 1
 133 294 l 1
 243 507 438 417 459 216 c 1
 470 216 l 1
 478 258 496 297 524 333 c 0
 541 355 560 376 586 391 c 0
 805 542 796 223 796 119 c 0
 796 65 816 -8 740 -18 c 1
 740 138 l 2
 740 174 740 210 739 245 c 0
 734 338 679 411 594 313 c 0
 536 244 508 163 489 80 c 0
 484 60 489 -25 449 -18 c 0
 414 -12 425 49 425 70 c 0
 425 148 418 257 363 323 c 0
 346 343 312 385 278 371 c 0
 184 333 136 158 133 80 c 0
 131 25 155 -55 77 -66 c 1
 64 235 l 1
 54 440 l 1
EndSplineSet
MinimumDistance: x7,-1 
EndChar
StartChar: n
Encoding: 78 110 32767
OldEncoding: 110
Width: 652
Flags: HW
Fore
186 -36 m 1
 87 -3 98 250 84 339 c 0
 76 385 60 440 120 458 c 1
 175 161 l 1
 186 161 l 1
 199 211 222 260 254 304 c 0
 277 336 305 364 337 388 c 0
 555 566 588 258 582 122 c 0
 579 63 595 2 516 -6 c 1
 516 81 567 326 463 379 c 0
 421 400 366 334 342 310 c 0
 247 211 192 92 186 -36 c 1
EndSplineSet
EndChar
StartChar: o
Encoding: 79 111 32767
OldEncoding: 111
Width: 517
Flags: HW
Fore
342 396 m 4
 233 397 137 334 107 234 c 4
 80 143 131 29 246 32 c 4
 370 35 415 188 419 278 c 4
 422 335 426 396 342 396 c 4
323 451 m 4
 429 463 470 391 475 304 c 4
 481 187 408 3 265 -13 c 4
 102 -33 12 117 50 251 c 4
 83 369 203 437 323 451 c 4
EndSplineSet
EndChar
StartChar: p
Encoding: 80 112 32767
OldEncoding: 112
Width: 520
Flags: HW
Fore
170 74 m 1
 201 67 233 48 266 58 c 0
 345 82 474 278 394 352 c 0
 327 414 145 358 150 264 c 0
 155 199 170 139 170 74 c 1
44 321 m 1
 75 346 112 453 150 397 c 1
 234 414 362 459 437 393 c 0
 486 350 470 270 453 216 c 0
 410 83 330 -22 179 7 c 1
 218 -336 l 1
 138 -329 144 -227 140 -164 c 0
 134 -51 121 66 109 178 c 0
 102 235 101 275 44 302 c 1
 44 321 l 1
EndSplineSet
EndChar
StartChar: q
Encoding: 81 113 32767
OldEncoding: 113
Width: 526
Flags: HW
VStem: 268 48<94.0625 109.883>
Fore
268 378 m 0
 177 372 92 294 78 201 c 0
 72 162 68 63 124 60 c 0
 214 57 272 204 286 275 c 0
 292 308 324 381 268 378 c 0
324 28 m 1
 364 -252 l 1
 440 -199 423 11 324 28 c 1
268 110 m 1
 234 76 195 34 148 20 c 0
 82 -1 44 50 36 110 c 0
 22 196 51 286 108 348 c 0
 198 443 367 460 338 291 c 0
 327 225 316 161 316 94 c 1
 485 192 l 1
 463 135 410 97 364 61 c 1
 451 11 461 -112 440 -203 c 0
 432 -237 419 -289 380 -297 c 0
 332 -307 315 -247 308 -211 c 0
 288 -106 268 3 268 110 c 1
EndSplineSet
MinimumDistance: x11,-1 
EndChar
StartChar: r
Encoding: 82 114 32767
OldEncoding: 114
Width: 418
Flags: HW
Fore
364 351 m 1
 278 322 197 223 175 125 c 0
 168 95 166 -25 126 -25 c 0
 91 -25 94 61 91 86 c 0
 87 163 38 400 118 430 c 1
 135 214 l 1
 179 255 301 472 364 351 c 1
EndSplineSet
EndChar
StartChar: s
Encoding: 83 115 32767
OldEncoding: 115
Width: 391
Flags: HW
Fore
72 67 m 1
 107 55 122 18 158 3 c 0
 214 -22 301 42 275 111 c 0
 244 192 40 167 55 284 c 0
 70 403 302 501 337 351 c 1
 304 357 284 387 251 388 c 0
 208 389 72 321 110 263 c 0
 170 170 375 209 306 37 c 0
 262 -73 43 -72 72 67 c 1
EndSplineSet
EndChar
StartChar: t
Encoding: 84 116 32767
OldEncoding: 116
Width: 412
Flags: HW
Fore
178 748 m 1
 242 737 230 579 230 523 c 1
 271 531 347 563 364 507 c 1
 238 474 l 1
 238 345 245 223 259 96 c 0
 260 74 281 -12 251 -18 c 0
 210 -26 216 63 216 88 c 0
 215 210 195 336 186 458 c 1
 141 449 48 407 37 474 c 1
 73 480 158 489 178 525 c 0
 207 575 171 688 178 748 c 1
EndSplineSet
EndChar
StartChar: u
Encoding: 85 117 32767
OldEncoding: 117
Width: 481
Flags: HW
Fore
75 430 m 1
 134 397 112 190 117 122 c 0
 118 93 114 36 147 21 c 0
 180 5 231 65 248 88 c 0
 301 162 336 247 355 336 c 0
 361 361 361 421 392 430 c 0
 433 444 416 378 413 361 c 0
 385 223 414 120 442 -15 c 1
 364 -28 365 95 339 148 c 1
 311 84 181 -112 99 -4 c 0
 32 85 44 327 75 430 c 1
EndSplineSet
EndChar
StartChar: v
Encoding: 86 118 32767
OldEncoding: 118
Width: 469
Flags: HW
Fore
231 35 m 1
 291 127 321 232 357 335 c 0
 367 362 368 430 404 435 c 0
 451 443 412 343 406 326 c 0
 371 232 349 120 296 35 c 0
 252 -36 202 -42 173 43 c 0
 165 68 160 93 153 118 c 0
 140 163 127 207 113 251 c 0
 93 310 74 373 66 435 c 1
 113 426 121 383 138 343 c 0
 181 247 198 135 231 35 c 1
EndSplineSet
EndChar
StartChar: w
Encoding: 87 119 32767
OldEncoding: 119
Width: 553
Flags: HW
Fore
50 441 m 1
 103 416 89 370 100 323 c 0
 120 236 137 137 168 53 c 1
 182 98 203 225 250 246 c 0
 311 274 377 131 396 95 c 1
 419 141 425 190 436 240 c 0
 442 270 445 300 451 330 c 0
 454 343 499 474 516 418 c 0
 523 394 502 354 496 330 c 0
 479 258 470 187 451 115 c 0
 444 92 440 31 410 24 c 0
 385 18 371 44 363 60 c 0
 336 112 311 166 264 205 c 1
 249 149 224 94 204 39 c 0
 197 22 190 -12 167 -16 c 0
 129 -22 119 58 115 81 c 0
 99 169 68 255 56 344 c 0
 52 381 32 404 50 441 c 1
EndSplineSet
EndChar
StartChar: x
Encoding: 88 120 32767
OldEncoding: 120
Width: 463
Flags: HW
Fore
241 150 m 1
 219 105 187 50 153 14 c 0
 136 -3 101 -5 106 27 c 0
 115 83 203 132 195 191 c 0
 188 242 108 288 79 329 c 0
 65 346 32 404 73 411 c 0
 96 415 112 375 123 362 c 0
 159 318 203 272 249 240 c 1
 353 419 l 1
 452 388 269 251 296 191 c 0
 319 141 417 114 419 52 c 0
 419 21 383 36 369 46 c 0
 324 80 291 124 241 150 c 1
EndSplineSet
EndChar
StartChar: y
Encoding: 89 121 32767
OldEncoding: 121
Width: 418
Flags: HW
Fore
250 -45 m 1
 207 -105 161 -209 258 -244 c 1
 273 -189 272 -97 250 -45 c 1
242 123 m 1
 226 102 211 81 192 65 c 0
 54 -47 48 201 58 283 c 0
 61 307 56 346 75 365 c 0
 103 392 107 338 105 323 c 0
 99 266 96 203 102 147 c 0
 104 129 109 94 132 94 c 0
 243 95 245 313 278 377 c 0
 292 404 322 402 325 370 c 0
 328 339 310 304 303 275 c 0
 295 243 289 211 289 179 c 0
 288 136 295 94 297 51 c 1
 331 71 367 85 375 35 c 1
 231 -19 359 -176 295 -274 c 0
 254 -337 171 -236 160 -196 c 0
 123 -70 277 -5 242 123 c 1
EndSplineSet
EndChar
StartChar: z
Encoding: 90 122 32767
OldEncoding: 122
Width: 439
Flags: HW
Fore
42 318 m 1
 62 385 284 465 337 401 c 0
 373 357 330 273 306 233 c 1
 371 226 l 1
 349 190 309 199 276 178 c 0
 229 147 201 91 181 41 c 1
 245 57 346 90 408 62 c 1
 379 13 251 9 196 0 c 0
 176 -3 136 -16 124 8 c 0
 103 52 188 148 210 183 c 1
 137 190 l 1
 137 204 l 1
 170 218 209 210 239 226 c 0
 288 252 304 332 306 382 c 1
 137 346 l 1
 42 318 l 1
EndSplineSet
EndChar
StartChar: braceleft
Encoding: 91 123 32767
OldEncoding: 123
Width: 250
Flags: HW
VStem: 91 23<46 80 126 144>
Fore
106 498 m 1
 126 497 144 496 148 470 c 1
 125 479 l 1
 112 422 122 372 122 314 c 0
 122 280 112 253 109 221 c 0
 107 196 114 165 114 139 c 0
 114 105 104 45 118 14 c 0
 132 -13 155 0 175 -4 c 1
 166 -47 116 -36 99 -3 c 0
 81 33 91 98 91 139 c 0
 91 168 94 196 64 198 c 1
 97 286 l 1
 106 498 l 1
EndSplineSet
MinimumDistance: x5,-1 
EndChar
StartChar: bar
Encoding: 92 124 32767
OldEncoding: 124
Width: 289
Flags: HW
VStem: 132 36<67 94 175.399 328.176 508 542>
Fore
132 575 m 1
 162 581 l 1
 172 527 161 473 162 418 c 0
 165 302 168 185 168 69 c 0
 168 29 173 -13 166 -52 c 0
 165 -62 160 -86 145 -83 c 0
 118 -78 132 52 132 75 c 0
 128 242 132 409 132 575 c 1
EndSplineSet
MinimumDistance: x3,-1 
EndChar
StartChar: braceright
Encoding: 93 125 32767
OldEncoding: 125
Width: 268
Flags: HW
Fore
91 529 m 1
 173 548 129 395 130 355 c 0
 130 334 132 305 150 291 c 0
 161 283 195 286 193 268 c 0
 190 232 164 192 161 152 c 0
 154 94 181 36 151 -22 c 0
 135 -51 90 -45 100 -7 c 1
 125 -17 l 1
 154 259 l 1
 63 280 115 418 110 481 c 0
 108 499 98 513 91 529 c 1
EndSplineSet
EndChar
StartChar: asciitilde
Encoding: 94 126 32767
OldEncoding: 126
Width: 487
Flags: HW
Fore
385 595 m 0
 407 606 405 578 400 567 c 0
 389 542 365 512 336 502 c 0
 281 482 243 551 192 555 c 0
 152 558 138 515 108 503 c 0
 94 497 91 511 94 520 c 0
 99 533 110 544 120 553 c 0
 161 589 206 592 254 564 c 0
 271 553 293 530 316 531 c 0
 355 533 357 581 385 595 c 0
EndSplineSet
EndChar
StartChar: uni0E01
Encoding: 96 3585 32767
OldEncoding: 3585
Width: 526
Flags: HW
HStem: -4 21G<148 173>
Fore
48 243 m 1
 60 284 89 319 123 348 c 0
 190 407 348 484 424 390 c 0
 468 336 463 250 465 186 c 0
 465 137 489 37 432 10 c 1
 415 24 l 1
 415 123 444 257 390 348 c 0
 349 419 207 383 173 320 c 0
 160 296 179 261 181 236 c 0
 188 160 208 68 173 -4 c 1
 148 -4 l 1
 123 271 l 1
 115 271 l 1
 98 245 83 238 48 243 c 1
EndSplineSet
EndChar
StartChar: uni0E02
Encoding: 97 3586 32767
OldEncoding: 3586
Width: 520
Flags: HW
Fore
107 305 m 1
 164 312 201 329 188 385 c 1
 139 373 116 348 107 305 c 1
361 75 m 1
 404 148 407 240 402 321 c 0
 399 368 386 427 443 448 c 1
 497 319 447 110 370 -5 c 1
 279 23 238 230 261 305 c 1
 225 337 l 1
 201 297 75 218 56 305 c 0
 40 376 185 459 245 399 c 0
 329 315 313 173 361 75 c 1
EndSplineSet
EndChar
StartChar: uni0E03
Encoding: 98 3587 32767
OldEncoding: 3587
Width: 532
Flags: HW
Fore
127 336 m 1
 229 320 133 452 127 336 c 1
324 380 m 1
 306 358 288 327 264 314 c 0
 219 289 93 290 96 366 c 0
 99 481 214 425 236 351 c 1
 251 351 l 1
 272 402 337 481 362 388 c 0
 388 290 378 183 396 84 c 1
 404 84 l 1
 404 210 l 1
 418 202 l 1
 418 254 409 306 411 358 c 0
 411 374 415 407 439 403 c 0
 465 399 461 360 459 341 c 0
 451 268 454 194 445 121 c 0
 442 95 411 -42 367 25 c 0
 334 80 340 170 335 232 c 0
 330 281 328 331 324 380 c 1
EndSplineSet
EndChar
StartChar: uni0E04
Encoding: 99 3588 32767
OldEncoding: 3588
Width: 486
Flags: HW
Fore
154 267 m 5
 162 203 l 5
 255 205 244 288 154 267 c 5
146 -12 m 5
 84 -3 100 75 98 120 c 4
 92 202 71 262 136 336 c 4
 217 430 359 452 380 303 c 4
 386 262 390 219 392 177 c 4
 394 124 405 62 394 9 c 5
 367 15 351 24 348 52 c 4
 343 129 361 216 339 292 c 4
 311 391 237 378 177 310 c 5
 247 296 l 5
 256 281 273 267 280 252 c 4
 310 169 181 186 158 144 c 4
 133 99 154 36 146 -12 c 5
EndSplineSet
EndChar
StartChar: uni0E05
Encoding: 100 3589 32767
OldEncoding: 3589
Width: 1000
Flags: H
VStem: 426 48<81 130 223.035 260.283>
Fore
149 215 m 5
 165 215 182 213 199 212 c 4
 296 211 159 338 149 215 c 5
140 176 m 5
 140 144 163 9 135 -9 c 4
 105 -28 90 17 86 36 c 4
 72 104 48 168 63 238 c 4
 80 315 184 514 290 391 c 4
 307 371 314 346 324 323 c 5
 364 400 444 441 467 331 c 4
 483 257 474 181 474 107 c 4
 474 83 483 37 466 19 c 4
 422 -29 426 116 426 130 c 4
 424 161 426 192 428 223 c 4
 430 269 419 315 416 362 c 5
 380 325 353 287 341 238 c 4
 339 224 337 197 316 197 c 4
 291 197 291 230 290 246 c 4
 282 310 229 439 155 338 c 4
 145 323 139 308 132 292 c 5
 301 338 313 129 140 176 c 5
EndSplineSet
MinimumDistance: x9,-1 
EndChar
StartChar: uni0E06
Encoding: 101 3590 32767
OldEncoding: 3590
Width: 658
Flags: HW
Fore
115 391 m 1
 124 312 l 1
 171 382 l 1
 115 391 l 1
339 179 m 1
 313 131 310 100 357 64 c 1
 339 179 l 1
236 373 m 1
 331 509 383 368 385 267 c 1
 535 197 l 1
 533 232 525 267 525 303 c 0
 525 318 537 491 576 422 c 0
 612 358 590 208 591 135 c 0
 591 115 609 43 579 37 c 0
 551 32 535 82 525 100 c 0
 494 152 460 202 395 214 c 1
 404 170 422 100 408 56 c 0
 395 14 356 3 330 38 c 1
 206 60 315 208 329 259 c 0
 339 294 323 337 320 373 c 1
 285 350 251 310 208 338 c 2
 199 338 l 1
 115 276 l 1
 99 301 71 325 73 356 c 0
 80 455 184 430 227 373 c 1
 236 373 l 1
EndSplineSet
EndChar
StartChar: uni0E07
Encoding: 102 3591 32767
OldEncoding: 3591
Width: 334
Flags: HW
Fore
98 311 m 1
 207 365 l 1
 157 411 112 357 98 311 c 1
216 342 m 1
 194 304 64 221 51 311 c 0
 41 382 163 465 230 419 c 0
 308 364 283 196 283 118 c 0
 283 90 292 46 278 21 c 0
 255 -22 89 87 104 124 c 0
 122 168 215 86 233 72 c 1
 241 149 250 270 216 342 c 1
EndSplineSet
EndChar
StartChar: uni0E08
Encoding: 103 3592 32767
OldEncoding: 3592
Width: 358
Flags: HW
Fore
101 187 m 1
 150 176 195 178 209 232 c 1
 154 254 123 242 101 187 c 1
70 321 m 1
 84 350 105 366 132 385 c 0
 160 404 201 444 239 437 c 0
 273 430 280 390 283 363 c 0
 293 286 291 204 285 128 c 0
 282 85 286 19 240 1 c 1
 216 172 l 1
 178 143 122 131 79 160 c 0
 51 178 50 217 85 224 c 1
 100 311 196 276 247 247 c 1
 245 264 242 281 240 299 c 0
 239 311 239 324 236 336 c 0
 214 432 131 306 70 321 c 1
EndSplineSet
EndChar
StartChar: uni0E09
Encoding: 104 3593 32767
OldEncoding: 3593
Width: 505
Flags: HW
HStem: 383 20G<329 337>
Fore
68 233 m 5
 147 241 l 5
 160 312 87 268 68 233 c 5
393 163 m 5
 408 86 l 5
 416 163 l 5
 393 163 l 5
329 403 m 6
 313 388 169 309 164 344 c 4
 155 401 310 450 352 429 c 4
 423 392 392 310 401 248 c 4
 407 215 440 207 454 178 c 4
 480 124 446 44 385 40 c 5
 345 117 l 5
 335 96 321 80 304 63 c 4
 292 50 279 37 266 24 c 4
 154 -73 163 163 171 225 c 5
 137 208 32 156 26 233 c 4
 20 307 137 347 184 294 c 4
 232 240 210 122 226 55 c 5
 264 95 327 143 347 194 c 4
 372 257 347 340 337 403 c 5
 329 403 l 6
EndSplineSet
EndChar
StartChar: uni0E0A
Encoding: 105 3594 32767
OldEncoding: 3594
Width: 457
Flags: HW
Fore
75 307 m 5
 186 341 l 5
 169 391 l 5
 122 376 81 357 75 307 c 5
245 73 m 5
 254 73 l 5
 295 154 308 282 271 366 c 5
 199 338 240 137 245 73 c 5
220 391 m 5
 432 542 l 5
 441 533 l 5
 417 473 346 452 322 394 c 4
 312 371 337 332 339 307 c 4
 341 242 333 178 315 115 c 4
 307 86 241 -63 203 24 c 4
 172 98 194 219 194 299 c 5
 171 290 150 274 126 269 c 4
 -91 214 139 542 220 391 c 5
EndSplineSet
EndChar
StartChar: uni0E0B
Encoding: 106 3595 32767
OldEncoding: 3595
Width: 529
Flags: HW
VStem: 17 41<314 356>
Fore
58 315 m 5
 115 405 l 5
 60 396 58 364 58 315 c 5
317 307 m 5
 341 44 l 5
 388 103 426 298 317 307 c 5
309 348 m 5
 360 392 439 487 512 471 c 5
 492 413 418 399 398 347 c 4
 388 316 425 287 428 257 c 4
 436 197 414 16 349 -7 c 4
 306 -22 291 38 285 69 c 4
 266 169 260 278 260 381 c 5
 228 347 179 267 147 340 c 5
 139 340 l 5
 104 266 17 257 17 356 c 4
 20 471 141 448 179 372 c 5
 188 372 l 5
 242 469 296 449 309 348 c 5
EndSplineSet
MinimumDistance: x0,-1 
EndChar
StartChar: uni0E0C
Encoding: 107 3596 32767
OldEncoding: 3596
Width: 649
Flags: HW
HStem: -23 21G<108 116>
Fore
402 113 m 5
 382 82 367 51 402 28 c 5
 402 113 l 5
40 333 m 5
 135 386 309 511 406 391 c 4
 452 333 431 260 457 197 c 4
 471 166 511 150 536 130 c 5
 536 169 536 209 536 248 c 4
 536 288 536 344 547 383 c 4
 555 407 586 414 598 389 c 4
 612 360 593 312 589 282 c 4
 581 214 619 11 545 -15 c 5
 541 47 511 87 461 121 c 5
 459 85 458 34 435 4 c 4
 402 -42 349 -10 339 36 c 4
 324 104 377 121 401 173 c 4
 420 216 389 321 362 357 c 4
 317 416 155 382 127 314 c 4
 103 255 158 140 167 79 c 5
 259 96 l 5
 270 -0 174 18 116 -23 c 6
 108 -23 l 5
 121 79 l 5
 40 333 l 5
EndSplineSet
EndChar
StartChar: uni0E0D
Encoding: 108 3597 32767
OldEncoding: 3597
Width: 652
Flags: HW
Fore
208 57 m 29
 191 44 l 21
 185 42 190 27 190 27 c 5
 211 28 228 33 233 49 c 13
 233 63 l 29
 208 57 l 29
612 -119 m 1
 606 -142 599 -163 586 -184 c 0
 575 -200 563 -215 546 -225 c 0
 426 -297 379 -46 502 -100 c 1
 502 -119 l 1
 482 -140 474 -187 519 -171 c 0
 551 -159 572 -125 602 -110 c 1
 612 -119 l 1
420 39 m 5
 544 102 524 150 520 272 c 4
 519 309 478 417 529 433 c 4
 572 445 573 352 573 328 c 4
 575 204 618 98 502 21 c 4
 478 5 451 -17 420 -13 c 4
 370 -9 373 48 367 86 c 4
 355 159 376 319 292 352 c 4
 241 373 175 314 127 300 c 5
 138 253 132 142 169 111 c 4
 199 86 255 137 277 91 c 4
 321 -6 143 -33 91 -7 c 5
 91 11 l 5
 127 21 l 5
 118 85 109 154 89 216 c 4
 81 242 53 279 61 306 c 4
 85 390 303 443 362 381 c 4
 431 309 419 132 420 39 c 5
EndSplineSet
EndChar
StartChar: uni0E0E
Encoding: 109 3598 32767
OldEncoding: 3598
Width: 475
Flags: HW
Fore
155 111 m 5
 129 104 47 54 103 24 c 4
 160 -7 168 80 155 111 c 5
370 -69 m 5
 350 -86 361 -114 370 -142 c 5
 378 -142 l 5
 389 -68 376 -80 370 -69 c 5
155 -158 m 5
 279 -126 l 5
 230 -78 165 -87 155 -158 c 5
106 265 m 5
 162 305 260 453 345 423 c 4
 390 408 397 345 403 306 c 4
 425 183 418 48 420 -77 c 4
 420 -113 444 -188 419 -218 c 4
 386 -257 352 -167 328 -160 c 4
 270 -142 172 -268 116 -166 c 4
 89 -116 150 -57 197 -53 c 4
 242 -50 273 -77 312 -93 c 5
 323 -58 358 -39 367 -4 c 4
 398 117 347 267 337 388 c 5
 180 290 l 5
 180 282 l 5
 327 277 227 24 131 -5 c 4
 56 -28 31 56 73 107 c 4
 103 143 155 138 197 135 c 5
 213 241 l 5
 106 249 l 5
 106 265 l 5
EndSplineSet
EndChar
StartChar: uni0E0F
Encoding: 110 3599 32767
OldEncoding: 3599
Width: 481
Flags: HW
VStem: 390 50<-179.875 -0.0107346>
Fore
123 84 m 5
 190 110 l 5
 198 163 l 5
 141 175 114 141 123 84 c 5
23 -180 m 5
 75 -180 108 -162 131 -110 c 5
 77 -110 50 -130 23 -180 c 5
181 330 m 5
 173 303 123 282 129 321 c 4
 139 409 343 506 401 425 c 4
 437 376 432 291 432 233 c 4
 432 116 440 -1 440 -118 c 4
 440 -150 447 -268 413 -280 c 4
 372 -296 320 -169 290 -145 c 5
 285 -191 278 -252 231 -268 c 5
 220 -237 206 -164 172 -155 c 4
 119 -141 45 -288 -28 -221 c 4
 -62 -190 -8 -132 11 -110 c 4
 62 -50 103 -70 168 -62 c 4
 203 -57 219 -32 256 -39 c 5
 231 -145 l 5
 248 -145 l 5
 286 -32 344 -136 390 -180 c 5
 390 -36 397 108 379 251 c 4
 373 294 388 364 351 394 c 4
 323 417 276 386 248 374 c 5
 248 365 l 5
 344 300 231 34 123 46 c 4
 71 51 64 125 89 162 c 4
 120 208 169 206 215 189 c 5
 226 249 259 312 181 330 c 5
EndSplineSet
MinimumDistance: x9,-1 
EndChar
StartChar: uni0E10
Encoding: 111 3600 32767
OldEncoding: 3600
Width: 481
Flags: HW
Fore
57 -178 m 1
 88 -149 l 1
 57 -178 l 1
27 -230 m 1
 -14 -137 39 -131 111 -105 c 0
 141 -94 161 -77 195 -82 c 1
 149 -163 l 1
 208 -105 226 -154 279 -193 c 1
 266 -169 263 -50 309 -101 c 0
 336 -131 325 -219 279 -227 c 0
 244 -233 220 -196 195 -178 c 1
 171 -230 131 -236 111 -178 c 1
 103 -178 l 1
 87 -214 65 -225 27 -230 c 1
157 207 m 1
 203 94 311 287 195 231 c 0
 182 224 169 215 157 207 c 1
402 481 m 1
 446 467 435 367 392 355 c 0
 351 342 324 405 271 385 c 1
 314 359 320 311 325 267 c 0
 340 172 345 80 333 -15 c 1
 264 -10 282 117 271 170 c 1
 251 161 232 147 210 143 c 0
 65 117 144 332 279 259 c 1
 264 341 l 1
 241 336 203 306 182 313 c 0
 140 329 195 391 210 404 c 0
 265 449 322 449 379 407 c 1
 402 481 l 1
EndSplineSet
EndChar
StartChar: uni0E11
Encoding: 112 3601 32767
OldEncoding: 3601
Width: 613
Flags: HW
HStem: 359 20G<475 491>
Fore
96 379 m 5
 79 292 l 5
 113 315 135 350 96 379 c 5
340 206 m 5
 348 244 361 282 379 318 c 4
 390 341 403 365 418 386 c 4
 468 458 533 435 548 353 c 4
 564 266 575 136 564 50 c 4
 562 28 531 -23 514 19 c 4
 503 46 517 98 517 128 c 4
 517 160 511 191 508 223 c 4
 505 276 501 326 491 379 c 5
 475 379 l 5
 426 272 376 185 353 67 c 4
 348 46 340 -17 308 -11 c 4
 280 -6 289 56 289 76 c 4
 287 171 280 266 273 361 c 5
 197 249 l 5
 163 301 l 5
 132 296 94 259 64 265 c 4
 26 273 30 343 45 367 c 4
 93 438 157 387 197 344 c 5
 216 386 282 456 315 386 c 4
 339 333 332 263 332 206 c 5
 340 206 l 5
EndSplineSet
EndChar
StartChar: uni0E12
Encoding: 113 3602 32767
OldEncoding: 3602
Width: 580
Flags: HW
HStem: 29 21G<355 363>
Fore
140 330 m 5
 108 241 l 5
 188 250 l 5
 192 293 177 318 140 330 c 5
156 223 m 5
 124 170 l 5
 180 206 l 5
 156 223 l 5
85 117 m 5
 93 73 103 40 140 20 c 5
 180 144 l 5
 85 117 l 5
363 135 m 5
 355 29 l 5
 363 29 l 5
 363 135 l 5
236 294 m 5
 244 316 253 336 263 356 c 4
 271 371 279 386 289 400 c 4
 379 518 392 259 410 215 c 4
 424 178 466 150 490 117 c 5
 482 383 l 5
 582 395 530 132 530 55 c 4
 530 34 534 -28 498 -17 c 4
 450 -0 458 104 411 135 c 5
 418 77 418 -9 363 -33 c 5
 333 7 287 50 305 108 c 4
 317 146 349 174 355 215 c 4
 362 261 341 320 331 365 c 5
 323 365 l 5
 301 312 272 259 245 208 c 4
 217 156 220 99 200 46 c 4
 164 -52 85 -27 60 64 c 4
 40 138 44 232 77 303 c 4
 124 404 192 402 228 294 c 5
 236 294 l 5
EndSplineSet
EndChar
StartChar: uni0E13
Encoding: 114 3603 32767
OldEncoding: 3603
Width: 619
Flags: HW
VStem: 351 46<96.1245 130>
Fore
166 44 m 24
 157 35 149 27 152 15 c 24
 155 8 162 3 169 5 c 24
 186 9 194 25 193 42 c 24
 193 48 190 52 184 54 c 24
 176 55 171 50 166 44 c 24
83 272 m 1
 30 263 58 319 83 340 c 0
 109 362 138 383 168 396 c 0
 202 413 251 436 290 427 c 0
 397 403 397 187 397 96 c 1
 433 121 488 154 495 205 c 0
 501 245 479 374 514 396 c 0
 537 411 548 384 549 364 c 0
 553 320 539 272 545 230 c 0
 553 176 591 139 583 79 c 0
 567 -42 507 41 496 113 c 1
 473 88 407 6 370 29 c 0
 343 48 351 102 351 130 c 0
 348 200 343 285 308 346 c 0
 272 408 165 355 137 304 c 0
 110 252 127 130 129 71 c 1
 187 106 282 73 211 -2 c 0
 174 -40 114 -18 95 29 c 0
 68 98 83 198 83 272 c 1
EndSplineSet
MinimumDistance: x9,-1 
EndChar
StartChar: uni0E14
Encoding: 115 3604 32767
OldEncoding: 3604
Width: 406
Flags: HW
VStem: 307 46<101 167 175 208>
Fore
87 134 m 5
 120 137 144 144 163 175 c 5
 125 183 100 173 87 134 c 5
72 94 m 5
 77 -23 180 29 170 118 c 5
 72 94 l 5
110 208 m 5
 292 254 195 -61 87 -22 c 4
 26 -0 36 84 45 134 c 4
 63 238 134 432 254 434 c 4
 379 437 353 211 353 126 c 4
 353 100 368 20 343 7 c 4
 300 -16 307 81 307 102 c 4
 307 170 317 498 190 343 c 4
 178 329 169 313 159 297 c 4
 140 268 125 238 110 208 c 5
EndSplineSet
MinimumDistance: x8,-1 
EndChar
StartChar: uni0E15
Encoding: 116 3605 32767
OldEncoding: 3605
Width: 436
Flags: HW
Fore
105 214 m 5
 215 248 l 5
 168 360 l 5
 115 342 99 268 105 214 c 5
128 180 m 5
 184 188 l 5
 176 223 l 5
 128 180 l 5
73 145 m 5
 97 14 183 40 200 163 c 5
 73 145 l 5
247 300 m 5
 255 322 266 341 279 360 c 4
 413 560 419 139 404 42 c 4
 397 -2 364 19 356 51 c 4
 345 91 349 154 350 197 c 4
 354 248 353 301 342 352 c 5
 247 231 l 5
 223 240 l 5
 245 174 228 97 187 42 c 4
 140 -20 78 -1 52 70 c 4
 23 148 52 270 83 343 c 4
 98 380 133 423 175 406 c 4
 211 392 229 333 247 300 c 5
EndSplineSet
EndChar
StartChar: uni0E16
Encoding: 117 3606 32767
OldEncoding: 3606
Width: 427
Flags: HW
HStem: -21 21G<161 176>
Fore
161 -21 m 5
 176 -21 l 5
 191 27 l 5
 164 19 157 8 161 -21 c 5
55 261 m 5
 59 313 98 350 138 377 c 4
 182 405 251 447 304 425 c 4
 377 394 389 228 384 156 c 4
 382 132 405 -5 357 9 c 4
 323 19 341 74 341 100 c 4
 341 156 346 371 271 379 c 4
 226 385 172 334 131 318 c 5
 138 51 l 5
 244 92 l 5
 243 27 156 -118 105 -2 c 4
 72 73 101 180 101 261 c 5
 55 261 l 5
EndSplineSet
EndChar
StartChar: uni0E17
Encoding: 118 3607 32767
OldEncoding: 3607
Width: 490
Flags: HW
HStem: 356 20G<366 381>
Fore
67 271 m 5
 136 279 l 5
 125 350 79 326 67 271 c 5
197 150 m 5
 213 192 232 239 251 279 c 4
 265 307 281 334 299 360 c 4
 337 416 417 456 439 360 c 4
 455 287 438 174 430 102 c 4
 428 85 434 -24 394 5 c 4
 368 24 388 84 389 110 c 4
 393 202 408 287 381 376 c 5
 366 376 l 5
 319 279 243 194 214 86 c 4
 208 65 204 -9 168 3 c 4
 148 10 150 44 148 61 c 4
 140 124 151 185 143 247 c 5
 119 243 97 226 74 224 c 4
 -37 218 80 441 161 341 c 4
 200 292 182 208 190 150 c 5
 197 150 l 5
EndSplineSet
EndChar
StartChar: uni0E18
Encoding: 119 3608 32767
OldEncoding: 3608
Width: 391
Flags: HW
Fore
290 416 m 5
 296 457 303 507 353 496 c 5
 345 462 340 365 297 360 c 4
 275 357 249 378 228 384 c 5
 300 298 273 188 250 87 c 4
 243 60 228 -27 183 -6 c 4
 157 6 155 47 151 71 c 4
 140 124 97 275 173 287 c 5
 196 71 l 5
 212 71 l 5
 212 352 l 5
 63 328 l 5
 82 426 210 459 290 416 c 5
EndSplineSet
EndChar
StartChar: uni0E19
Encoding: 120 3609 32767
OldEncoding: 3609
Width: 541
Flags: HW
HStem: 376 20G<109 167>
Fore
109 396 m 5
 101 344 l 5
 159 361 l 5
 167 396 l 5
 109 396 l 5
433 223 m 5
 416 94 l 5
 450 94 l 5
 433 223 l 5
175 335 m 5
 144 316 99 284 62 311 c 4
 11 347 90 430 126 441 c 4
 158 451 187 432 217 421 c 5
 242 68 l 5
 283 108 366 203 381 258 c 4
 390 295 372 416 412 433 c 4
 465 456 439 341 441 318 c 4
 452 257 501 227 495 155 c 4
 491 122 458 -3 406 48 c 4
 382 71 390 131 383 163 c 5
 350 126 281 -18 225 -10 c 4
 196 -5 200 46 197 68 c 4
 185 157 191 248 175 335 c 5
EndSplineSet
EndChar
StartChar: uni0E1A
Encoding: 121 3610 32767
OldEncoding: 3610
Width: 496
Flags: HW
Fore
88 313 m 5
 177 364 l 5
 136 407 95 363 88 313 c 5
226 416 m 5
 233 322 242 226 256 133 c 4
 259 109 259 51 291 50 c 4
 450 44 389 318 386 398 c 4
 385 424 410 449 431 428 c 4
 453 406 453 351 453 322 c 4
 456 222 453 129 389 47 c 4
 362 13 290 -34 247 -5 c 4
 161 55 210 252 186 339 c 5
 120 208 -34 312 96 406 c 4
 111 416 127 427 145 430 c 4
 172 436 200 422 226 416 c 5
EndSplineSet
EndChar
StartChar: uni0E1B
Encoding: 122 3611 32767
OldEncoding: 3611
Width: 472
Flags: HW
HStem: 380 21G<105 161>
Fore
161 380 m 1
 161 398 l 1
 105 389 l 1
 105 380 l 1
 161 380 l 1
183 342 m 1
 166 332 151 325 133 322 c 0
 19 313 100 484 182 431 c 0
 250 387 223 214 225 132 c 0
 225 94 236 40 274 56 c 0
 422 121 373 303 373 459 c 4
 373 488 352 651 398 632 c 4
 429 619 414 485 417 450 c 4
 427 333 443 205 390 104 c 0
 321 -29 173 -54 183 152 c 0
 186 217 183 275 183 342 c 1
EndSplineSet
EndChar
StartChar: uni0E1C
Encoding: 123 3612 32767
OldEncoding: 3612
Width: 457
Flags: HW
Fore
135 322 m 1
 173 322 217 310 231 358 c 1
 187 374 150 381 135 322 c 1
359 130 m 1
 359 205 353 284 363 358 c 0
 365 376 374 433 403 412 c 0
 423 395 415 337 415 312 c 0
 417 212 395 111 391 11 c 1
 317 18 333 150 263 153 c 0
 211 155 190 -56 131 5 c 0
 103 34 102 100 98 139 c 0
 85 245 57 442 215 410 c 0
 261 400 294 333 252 293 c 0
 218 260 167 270 127 276 c 1
 151 84 l 1
 207 161 291 303 351 130 c 1
 359 130 l 1
EndSplineSet
EndChar
StartChar: uni0E1D
Encoding: 124 3613 32767
OldEncoding: 3613
Width: 436
Flags: HW
Fore
118 310 m 1
 251 310 124 436 118 310 c 1
317 125 m 1
 322 202 330 180 324 258 c 4
 320 309 316 354 322 405 c 4
 325 437 322 617 371 594 c 4
 409 576 377 449 371 415 c 4
 364 379 370 349 372 313 c 4
 378 211 369 208 365 106 c 0
 363 80 361 18 332 12 c 0
 299 7 277 81 265 106 c 0
 252 131 240 154 230 180 c 1
 195 131 188 34 141 1 c 0
 108 -24 80 13 73 50 c 0
 52 164 29 405 174 417 c 0
 231 421 253 342 221 294 c 0
 196 257 140 258 102 255 c 1
 118 69 l 1
 163 133 198 301 281 180 c 0
 293 162 301 143 309 125 c 2
 317 125 l 1
EndSplineSet
EndChar
StartChar: uni0E1E
Encoding: 125 3614 32767
OldEncoding: 3614
Width: 514
Flags: HW
Fore
48 261 m 1
 73 256 173 278 147 327 c 0
 112 390 56 288 48 261 c 1
423 155 m 1
 423 218 378 407 440 421 c 1
 479 317 480 215 468 102 c 0
 466 81 484 -12 442 2 c 0
 383 20 405 188 323 188 c 0
 256 188 263 16 212 -12 c 0
 180 -30 182 31 182 48 c 0
 181 126 181 202 182 279 c 1
 154 265 134 238 106 226 c 0
 -38 162 48 481 175 369 c 0
 187 359 198 347 206 332 c 0
 217 310 215 285 217 261 c 0
 221 225 223 190 223 155 c 1
 231 155 l 1
 281 252 373 279 415 155 c 1
 423 155 l 1
EndSplineSet
EndChar
StartChar: uni0E1F
Encoding: 126 3615 32767
OldEncoding: 3615
Width: 532
Flags: HW
VStem: 169 49<187 279>
Fore
107 380 m 0
 58 349 83 281 136 313 c 0
 184 342 151 407 107 380 c 0
413 142 m 1
 437 255 423 383 435 499 c 0
 437 526 425 607 456 618 c 0
 499 635 486 505 486 481 c 0
 481 368 469 254 462 142 c 0
 460 105 468 32 445 1 c 0
 428 -23 406 5 398 23 c 0
 377 69 360 179 299 181 c 0
 228 183 259 37 215 7 c 0
 186 -13 178 28 178 51 c 0
 175 127 169 203 169 279 c 1
 143 275 116 261 88 261 c 0
 -42 263 125 551 202 380 c 0
 210 362 215 343 217 325 c 0
 222 279 218 233 218 188 c 1
 304 252 352 243 413 142 c 1
EndSplineSet
MinimumDistance: x15,-1 
EndChar
StartChar: uni0E20
Encoding: 127 3616 32767
OldEncoding: 3616
Width: 493
Flags: HW
Fore
105 48 m 1
 120 45 136 39 151 41 c 0
 250 51 143 205 112 88 c 0
 108 75 106 61 105 48 c 1
128 321 m 1
 185 377 313 497 389 408 c 0
 437 353 431 245 438 176 c 0
 441 142 461 -9 423 -18 c 0
 383 -28 386 87 385 112 c 0
 383 171 410 373 322 384 c 0
 295 388 260 363 237 353 c 1
 281 264 271 122 209 39 c 0
 162 -25 81 2 70 80 c 0
 52 197 158 138 201 174 c 0
 234 202 218 277 214 313 c 1
 128 313 l 1
 128 321 l 1
EndSplineSet
EndChar
StartChar: uni0E21
Encoding: 128 3617 32767
OldEncoding: 3617
Width: 523
Flags: HW
Fore
206 331 m 1
 142 454 33 208 164 301 c 2
 206 331 l 1
214 129 m 1
 197 68 l 1
 206 68 l 1
 214 129 l 1
413 173 m 1
 413 208 413 244 413 279 c 0
 413 299 428 481 470 416 c 0
 490 384 468 338 465 305 c 0
 455 213 494 109 455 24 c 1
 396 56 395 153 322 172 c 0
 243 192 267 50 237 10 c 0
 210 -29 170 20 162 50 c 0
 138 146 245 204 222 305 c 1
 214 305 l 1
 180 248 19 179 46 305 c 0
 62 380 164 448 227 388 c 0
 266 349 271 278 272 226 c 1
 330 226 369 215 413 173 c 1
EndSplineSet
EndChar
StartChar: uni0E22
Encoding: 129 3618 32767
OldEncoding: 3618
Width: 421
Flags: HW
Fore
158 199 m 1
 135 196 110 188 88 194 c 0
 -49 232 117 463 203 424 c 0
 230 412 217 379 204 361 c 0
 187 340 70 287 87 259 c 0
 123 205 222 318 238 273 c 0
 256 223 130 86 236 49 c 0
 275 35 313 79 325 113 c 0
 351 187 334 282 314 354 c 0
 309 375 310 427 344 411 c 0
 371 396 369 336 369 310 c 0
 371 222 398 107 330 38 c 0
 212 -79 131 75 158 199 c 1
EndSplineSet
EndChar
StartChar: uni0E23
Encoding: 130 3619 32767
OldEncoding: 3619
Width: 361
Flags: HW
Fore
142 132 m 0
 106 98 145 15 185 56 c 0
 223 93 182 171 142 132 c 0
259 390 m 1
 272 440 277 515 332 500 c 1
 323 459 313 334 273 325 c 0
 207 311 204 428 128 351 c 1
 175 337 238 338 254 271 c 0
 274 189 241 -61 128 -10 c 0
 81 12 76 138 114 172 c 0
 140 196 166 177 192 189 c 0
 207 195 215 212 216 232 c 0
 216 335 90 273 79 324 c 0
 51 450 210 448 259 390 c 1
EndSplineSet
EndChar
StartChar: uni0E24
Encoding: 131 3620 32767
OldEncoding: 3620
Width: 481
Flags: HW
VStem: 368 49<-89 -23>
Fore
164 35 m 1
 208 18 225 41 229 86 c 1
 195 81 179 67 164 35 c 1
107 281 m 1
 -1 262 82 360 131 385 c 0
 158 399 185 408 213 417 c 0
 458 496 417 81 417 -75 c 0
 417 -95 429 -259 381 -228 c 0
 354 -207 368 -114 368 -83 c 0
 368 29 363 144 352 256 c 0
 349 298 342 361 294 378 c 0
 127 437 156 203 156 112 c 1
 183 120 216 141 245 130 c 0
 292 112 283 37 251 9 c 0
 213 -24 136 -11 114 37 c 0
 88 96 107 215 107 281 c 1
EndSplineSet
MinimumDistance: x5,-1 
EndChar
StartChar: uni0E25
Encoding: 132 3621 32767
OldEncoding: 3621
Width: 343
Flags: HW
VStem: 245 48<48 69 83 117>
Fore
107 48 m 1
 107 23 l 1
 176 48 l 1
 107 48 l 1
107 259 m 1
 91 326 211 457 276 415 c 0
 337 375 293 166 293 99 c 0
 293 76 303 13 275 4 c 0
 249 -4 244 29 245 48 c 0
 246 91 260 175 207 192 c 0
 163 204 124 124 107 91 c 1
 140 104 257 112 214 35 c 0
 191 -6 83 -36 59 17 c 0
 6 137 153 273 254 234 c 1
 246 377 l 1
 107 259 l 1
EndSplineSet
MinimumDistance: x5,-1 
EndChar
StartChar: uni0E26
Encoding: 133 3622 32767
OldEncoding: 3622
Width: 526
Flags: HW
VStem: 379 42<-207 -141>
Fore
122 129 m 0
 84 113 78 26 136 44 c 0
 189 61 182 152 122 129 c 0
111 290 m 1
 137 386 319 502 377 372 c 0
 445 215 421 -7 421 -174 c 0
 421 -231 423 -288 424 -345 c 0
 425 -360 420 -387 397 -380 c 0
 360 -368 379 -231 379 -199 c 0
 379 -57 362 84 362 225 c 0
 362 270 353 359 301 378 c 0
 274 388 236 358 212 347 c 1
 289 282 263 158 220 78 c 0
 199 41 161 -6 111 1 c 0
 21 13 36 111 97 152 c 0
 130 176 168 160 203 152 c 1
 212 253 236 305 111 290 c 1
EndSplineSet
MinimumDistance: x4,-1 
EndChar
StartChar: uni0E27
Encoding: 134 3623 32767
OldEncoding: 3623
Width: 343
Flags: HW
Fore
181 122 m 1
 181 44 l 1
 240 56 245 117 181 122 c 1
249 385 m 1
 203 367 123 245 82 253 c 0
 52 259 84 304 92 315 c 0
 122 356 230 490 283 419 c 0
 343 339 313 175 286 87 c 0
 274 46 223 -14 174 9 c 0
 120 35 119 126 166 159 c 0
 193 178 229 164 258 157 c 1
 249 385 l 1
EndSplineSet
EndChar
StartChar: uni0E28
Encoding: 135 3624 32767
OldEncoding: 3624
Width: 418
Flags: HW
Fore
124 213 m 1
 219 237 l 1
 176 261 142 266 124 213 c 1
323 372 m 1
 349 407 442 531 459 428 c 1
 291 369 347 149 347 14 c 1
 295 22 299 65 293 109 c 0
 285 187 325 287 271 356 c 0
 211 431 115 336 108 269 c 1
 128 276 150 289 172 289 c 0
 218 290 289 240 241 193 c 0
 211 163 152 170 116 181 c 1
 108 -18 l 1
 40 -13 60 66 60 117 c 0
 60 184 42 281 76 340 c 0
 127 427 267 477 323 372 c 1
EndSplineSet
EndChar
StartChar: uni0E29
Encoding: 136 3625 32767
OldEncoding: 3625
Width: 565
Flags: HW
Fore
135 404 m 1
 108 368 l 1
 108 359 l 1
 180 395 l 1
 135 404 l 1
323 269 m 1
 323 250 l 1
 404 232 l 1
 389 273 364 277 323 269 c 1
431 449 m 1
 495 425 476 344 476 287 c 1
 530 305 l 1
 518 241 469 79 421 37 c 0
 379 -1 270 -14 233 36 c 0
 171 115 240 230 202 312 c 0
 180 358 49 275 54 359 c 0
 60 437 198 452 234 395 c 0
 293 305 216 163 270 82 c 0
 332 -12 421 115 422 178 c 1
 386 183 315 204 303 243 c 0
 279 322 385 319 422 287 c 1
 431 449 l 1
EndSplineSet
EndChar
StartChar: uni0E2A
Encoding: 137 3626 32767
OldEncoding: 3626
Width: 376
Flags: HW
Fore
97 50 m 1
 97 41 l 1
 133 16 159 16 180 58 c 1
 97 50 l 1
238 370 m 1
 199 359 168 302 130 301 c 0
 77 299 152 382 163 391 c 0
 194 415 230 418 263 435 c 0
 321 467 348 510 421 514 c 1
 412 455 330 421 280 404 c 1
 311 304 317 195 305 92 c 0
 301 48 306 -1 255 -10 c 1
 255 52 273 154 238 209 c 0
 188 284 100 138 97 92 c 1
 162 122 285 74 195 5 c 0
 149 -30 67 5 53 58 c 0
 22 173 144 303 255 277 c 1
 238 370 l 1
EndSplineSet
EndChar
StartChar: uni0E2B
Encoding: 138 3627 32767
OldEncoding: 3627
Width: 544
Flags: HW
Fore
433 387 m 24
 423 377 419 366 423 352 c 24
 425 347 429 342 434 343 c 24
 447 345 447 359 453 371 c 24
 457 380 468 388 461 395 c 24
 453 403 441 395 433 387 c 24
93 357 m 1
 76 300 93 295 102 278 c 5
 120 298 153 282 154 349 c 5
 145 366 117 360 93 357 c 1
232 65 m 1
 283 122 349 193 373 269 c 0
 386 311 370 359 392 399 c 0
 405 426 469 462 498 444 c 0
 525 427 514 390 504 366 c 0
 453 251 431 221 448 91 c 0
 452 69 468 11 436 0 c 0
 391 -15 383 133 379 162 c 1
 341 118 290 8 223 10 c 0
 151 12 171 235 171 286 c 1
 115 247 -11 244 50 346 c 0
 80 397 169 424 205 362 c 0
 244 295 229 142 232 65 c 1
EndSplineSet
EndChar
StartChar: uni0E2C
Encoding: 139 3628 32767
OldEncoding: 3628
Width: 613
Flags: HW
VStem: 463 65<232.07 282.165>
Fore
106 311 m 1
 153 321 184 325 192 378 c 1
 144 375 126 356 106 311 c 1
463 232 m 1
 463 322 478 423 467 513 c 0
 462 562 418 613 423 659 c 0
 438 775 532 727 539 637 c 1
 680 727 l 1
 532 523 l 1
 528 19 l 1
 471 41 433 141 409 199 c 1
 369 167 330 135 310 86 c 0
 298 57 294 -7 256 -15 c 0
 192 -26 214 232 203 277 c 1
 182 268 160 257 138 251 c 0
 -46 199 116 536 247 376 c 0
 261 360 271 343 274 322 c 0
 279 274 268 215 268 165 c 1
 336 220 374 254 463 232 c 1
EndSplineSet
MinimumDistance: x8,-1 
EndChar
StartChar: uni0E2D
Encoding: 140 3629 32767
OldEncoding: 3629
Width: 515
Flags: HW
HStem: 36 21G<290 299>
Fore
249 202 m 5
 340 194 l 5
 310 230 277 250 249 202 c 5
249 152 m 5
 290 36 l 5
 299 36 l 5
 332 136 l 5
 249 152 l 5
170 293 m 1
 185 325 212 357 237 381 c 4
 313 452 369 442 387 335 c 4
 404 238 386 134 348 45 c 4
 313 -44 232 20 214 86 c 4
 203 124 202 163 191 202 c 5
 240 250 265 292 340 260 c 5
 324 384 l 5
 277 351 232 277 170 293 c 1
EndSplineSet
EndChar
StartChar: uni0E2E
Encoding: 141 3630 32767
OldEncoding: 3630
Width: 507
Flags: HW
Fore
241 400 m 5
 225 368 l 5
 272 360 l 5
 241 400 l 5
179 153 m 5
 202 161 235 168 254 184 c 4
 275 201 275 243 247 254 c 4
 186 277 179 190 179 153 c 5
194 129 m 5
 225 42 l 5
 260 61 272 99 280 137 c 5
 194 129 l 5
303 392 m 5
 323 403 385 467 406 442 c 4
 425 420 375 376 362 363 c 4
 292 286 344 160 303 66 c 4
 290 32 260 -12 218 2 c 4
 99 45 116 351 280 281 c 5
 264 328 189 321 183 368 c 4
 174 439 283 460 303 392 c 5
EndSplineSet
EndChar
StartChar: uni0E2F
Encoding: 142 3631 32767
OldEncoding: 3631
Width: 469
Flags: HW
VStem: 326 47<15 49 76 145>
Fore
135 380 m 0
 77 354 135 264 194 291 c 0
 264 322 190 406 135 380 c 0
319 358 m 1
 295 333 273 306 246 284 c 0
 231 272 213 261 194 255 c 0
 19 206 67 492 209 409 c 0
 230 396 247 375 264 358 c 1
 307 452 361 413 365 330 c 0
 369 246 373 163 373 78 c 0
 373 50 381 6 368 -20 c 0
 357 -39 334 -32 329 -15 c 0
 318 20 326 64 326 100 c 128
 326 136 328 172 326 208 c 0
 324 258 319 308 319 358 c 1
EndSplineSet
MinimumDistance: x8,-1 
EndChar
StartChar: uni0E30
Encoding: 143 3632 32767
OldEncoding: 3632
Width: 423
Flags: HW
HStem: 86 26<153.8 163>
VStem: 163 59<90 94>
Fore
140 112 m 1
 117 91 l 1
 163 86 l 1
 163 112 l 1
 140 112 l 1
362 143 m 1
 397 82 154 10 82 77 c 0
 43 115 175 178 225 122 c 0
 234 111 222 102 222 90 c 1
 362 143 l 1
175 337 m 1
 143 319 120 302 152 285 c 1
 220 293 228 310 199 337 c 1
 175 337 l 1
362 353 m 1
 406 299 199 215 101 269 c 0
 45 300 95 356 187 360 c 0
 238 362 235 325 264 310 c 1
 362 353 l 1
EndSplineSet
MinimumDistance: x7,-1 
EndChar
StartChar: uni0E31
Encoding: 144 3633 32767
OldEncoding: 3633
Width: 0
Flags: HW
Fore
-226 568 m 0
 -251 557 -259 495 -221 509 c 0
 -187 522 -191 584 -226 568 c 0
-173 506 m 1
 -132 528 -97 604 -59 615 c 0
 -19 627 -54 566 -61 557 c 0
 -95 512 -240 390 -271 506 c 0
 -292 581 -187 652 -165 563 c 0
 -161 544 -169 524 -173 506 c 1
EndSplineSet
EndChar
StartChar: uni0E32
Encoding: 145 3634 32767
OldEncoding: 3634
Width: 340
Flags: HW
VStem: 255 47<82.5985 245.238>
Fore
58 321 m 1
 69 378 209 463 260 424 c 0
 285 406 288 371 292 342 c 0
 302 263 300 177 302 98 c 0
 302 77 318 -10 277 3 c 0
 246 12 255 74 255 98 c 0
 255 299 l 0
 254 322 257 357 238 373 c 0
 203 402 100 325 58 321 c 1
EndSplineSet
MinimumDistance: x3,-1 
EndChar
StartChar: uni0E33
Encoding: 146 3635 32767
OldEncoding: 3635
Width: 343
Flags: HW
Fore
72 326 m 1
 80 397 209 502 269 422 c 0
 323 351 291 180 296 94 c 0
 298 75 313 -15 264 14 c 0
 236 31 241 84 237 112 c 0
 224 214 251 305 215 406 c 1
 72 326 l 1
-81 691 m 1
 -233 664 -85 543 -81 691 c 1
-117 744 m 0
 4 789 -25 600 -117 566 c 0
 -236 526 -207 712 -117 744 c 0
EndSplineSet
LCarets: 0 255 '    ' 1 0 
Ligature: 8 0 'liga' uni0E4D uni0E32
EndChar
StartChar: uni0E34
Encoding: 147 3636 5
OldEncoding: 3636
Width: 0
Flags: HW
Fore
-333 502 m 5
 -102 490 l 5
 -156 581 -264 589 -333 502 c 5
-53 454 m 5
 -132 461 -212 460 -292 468 c 4
 -316 471 -360 468 -374 486 c 4
 -413 538 -270 595 -217 597 c 4
 -107 603 -65 520 -53 454 c 5
EndSplineSet
EndChar
StartChar: uni0E35
Encoding: 148 3637 6
OldEncoding: 3637
Width: 0
Flags: HW
HStem: 506 42<-227 -210> 548 14<-339 -320.333>
Fore
-339 562 m 5
 -339 548 l 5
 -184 548 l 5
 -231 594 -283 565 -339 562 c 5
-106 527 m 5
 -94 575 -115 642 -50 647 c 5
 -50 616 -45 461 -86 461 c 4
 -128 461 -164 505 -212 506 c 4
 -248 506 -398 485 -415 522 c 4
 -433 562 -351 594 -325 601 c 4
 -243 622 -156 608 -114 527 c 5
 -106 527 l 5
EndSplineSet
EndChar
StartChar: uni0E36
Encoding: 149 3638 7
OldEncoding: 3638
Width: 0
Flags: HW
Fore
-407 491 m 5
 -231 503 l 5
 -251 594 -374 549 -407 491 c 5
-125 486 m 5
 -112 486 l 5
 -93 520 l 5
 -120 518 -131 511 -125 486 c 5
-169 468 m 5
 -172 457 -176 437 -194 437 c 4
 -214 437 -217 468 -238 472 c 4
 -278 480 -345 466 -388 463 c 4
 -404 462 -432 459 -440 476 c 4
 -476 547 -308 598 -256 577 c 4
 -229 566 -212 522 -186 518 c 4
 -150 512 -127 570 -83 551 c 4
 -43 534 -77 474 -103 460 c 4
 -125 448 -148 461 -169 468 c 5
EndSplineSet
EndChar
StartChar: uni0E37
Encoding: 150 3639 8
OldEncoding: 3639
Width: 0
Flags: HW
Fore
-237 527 m 5
 -260 633 -495 527 -304 527 c 6
 -237 527 l 5
-203 569 m 5
 -203 584 -210 668 -163 652 c 4
 -131 641 -151 519 -171 501 c 4
 -189 485 -217 505 -238 506 c 4
 -296 510 -363 481 -419 509 c 4
 -469 536 -408 585 -372 597 c 4
 -310 617 -250 599 -203 569 c 5
-94 660 m 5
 -30 642 -44 563 -69 527 c 5
 -125 544 -114 626 -94 660 c 5
EndSplineSet
EndChar
StartChar: uni0E38
Encoding: 151 3640 9
OldEncoding: 3640
Width: 0
Flags: HW
Fore
-233 -83 m 5
 -224 -83 -216 -83 -208 -83 c 4
 -153 -81 -213 -15 -233 -83 c 5
-174 -103 m 5
 -195 -106 -236 -118 -253 -100 c 4
 -284 -68 -218 -19 -188 -25 c 4
 -122 -39 -144 -189 -144 -238 c 5
 -191 -225 -174 -143 -174 -103 c 5
EndSplineSet
EndChar
StartChar: uni0E39
Encoding: 152 3641 10
OldEncoding: 3641
Width: 0
Flags: HW
Fore
-272 -58 m 5
 -264 -85 -245 -82 -221 -73 c 5
 -233 -47 -248 -49 -272 -58 c 5
-211 -89 m 5
 -225 -91 -238 -97 -252 -98 c 4
 -343 -106 -259 9 -204 -48 c 4
 -180 -74 -184 -115 -171 -146 c 5
 -167 -130 -163 -115 -161 -99 c 4
 -161 -89 -157 -22 -133 -41 c 4
 -100 -68 -149 -190 -181 -202 c 5
 -211 -89 l 5
EndSplineSet
EndChar
StartChar: uni0E3A
Encoding: 153 3642 11
OldEncoding: 3642
Width: 0
Flags: HW
Fore
-306 -45 m 4
 -228 -25 -237 -142 -308 -156 c 4
 -397 -173 -372 -61 -306 -45 c 4
EndSplineSet
EndChar
StartChar: uni0E3F
Encoding: 154 3647 32767
OldEncoding: 3647
Width: 526
Flags: HW
DStem: 131 436 166 449 159 88 186 269
Fore
270 338 m 1
 331 380 366 430 367 505 c 1
 265 504 276 423 270 338 c 1
235 484 m 1
 166 449 l 1
 186 269 l 1
 239 300 259 428 235 484 c 1
242 74 m 1
 308 95 411 130 399 220 c 0
 392 275 295 290 263 250 c 0
 233 213 242 120 242 74 c 1
207 227 m 1
 185 195 192 146 200 109 c 1
 207 109 l 1
 207 227 l 1
256 526 m 1
 256 547 244 639 271 644 c 0
 301 650 291 550 291 533 c 1
 362 554 423 523 399 442 c 0
 381 387 337 343 298 304 c 1
 418 319 498 205 394 111 c 0
 355 76 262 64 236 24 c 0
 211 -16 225 -89 220 -134 c 0
 218 -148 214 -178 193 -176 c 0
 151 -169 197 -18 185 12 c 0
 166 58 96 74 65 116 c 0
 54 130 35 185 75 170 c 0
 94 163 105 137 117 123 c 0
 130 109 144 99 159 88 c 1
 131 436 l 1
 68 408 l 1
 57 476 202 516 256 526 c 1
EndSplineSet
MinimumDistance: x4,-1 
EndChar
StartChar: uni0E40
Encoding: 155 3648 32767
OldEncoding: 3648
Width: 289
Flags: HW
Fore
137 38 m 1
 177 32 198 44 210 84 c 1
 173 81 149 75 137 38 c 1
128 121 m 1
 155 126 191 144 218 134 c 0
 310 102 230 -51 128 6 c 0
 95 25 92 66 87 103 c 0
 75 181 28 416 128 437 c 1
 128 121 l 1
EndSplineSet
EndChar
StartChar: uni0E41
Encoding: 156 3649 32767
OldEncoding: 3649
Width: 493
Flags: HW
HStem: 407 20G<102 161>
Fore
390 88 m 28
 383 83 381 74 386 66 c 24
 390 59 399 59 408 62 c 24
 414 65 419 71 417 78 c 24
 413 88 400 93 390 88 c 28
200 97 m 1
 76 27 234 -19 200 97 c 1
102 427 m 1
 161 427 l 1
 141 127 l 1
 171 137 214 157 245 137 c 0
 305 94 237 -20 180 -27 c 0
 139 -33 96 -4 63 17 c 1
 102 147 102 293 102 427 c 1
385 147 m 1
 409 147 447 153 463 131 c 0
 501 81 440 -14 380 16 c 0
 287 63 303 400 395 427 c 1
 385 147 l 1
EndSplineSet
EndChar
StartChar: uni0E42
Encoding: 157 3650 32767
OldEncoding: 3650
Width: 415
Flags: HW
Fore
249 45 m 1
 289 38 300 51 303 93 c 1
 249 45 l 1
321 645 m 1
 321 688 326 715 366 732 c 1
 375 693 372 577 312 587 c 0
 270 594 249 647 204 651 c 0
 170 654 136 628 105 616 c 1
 105 606 l 1
 198 591 l 1
 225 471 l 1
 249 142 l 1
 276 146 312 157 336 136 c 0
 382 95 347 0 294 -9 c 0
 227 -21 211 45 206 103 c 0
 190 253 168 407 168 558 c 1
 140 556 81 529 58 548 c 0
 6 590 104 672 134 688 c 0
 212 731 258 695 321 645 c 1
EndSplineSet
EndChar
StartChar: uni0E43
Encoding: 158 3651 32767
OldEncoding: 3651
Width: 379
Flags: HW
Fore
228 46 m 1
 276 51 296 77 288 128 c 1
 252 110 234 88 228 46 c 1
141 661 m 1
 63 560 l 1
 124 527 182 603 141 661 c 1
158 523 m 1
 -3 422 20 694 150 710 c 0
 198 716 206 624 209 588 c 0
 222 443 219 300 236 156 c 1
 375 202 352 9 245 3 c 0
 199 -1 183 41 184 82 c 0
 192 229 158 375 158 523 c 1
EndSplineSet
EndChar
StartChar: uni0E44
Encoding: 159 3652 32767
OldEncoding: 3652
Width: 373
Flags: HW
Fore
297 130 m 1
 265 41 l 1
 296 54 306 91 297 130 c 1
114 588 m 1
 140 620 167 741 208 741 c 0
 251 741 238 638 235 608 c 0
 222 464 249 306 249 160 c 1
 272 165 311 189 332 170 c 0
 380 125 323 -3 273 -5 c 0
 205 -9 212 84 208 140 c 0
 200 302 185 466 185 628 c 1
 122 519 l 1
 69 543 10 684 74 728 c 1
 114 588 l 1
EndSplineSet
EndChar
StartChar: uni0E45
Encoding: 160 3653 32767
OldEncoding: 3653
Width: 424
Flags: HW
Fore
60 325 m 1
 80 390 211 506 275 406 c 0
 301 366 300 315 307 270 c 0
 322 163 332 58 337 -50 c 0
 340 -94 366 -180 296 -193 c 1
 296 -45 279 102 263 250 c 0
 259 284 259 383 213 398 c 128
 167 413 110 330 68 318 c 1
 60 325 l 1
EndSplineSet
EndChar
StartChar: uni0E46
Encoding: 161 3654 32767
OldEncoding: 3654
Width: 472
Flags: HW
Fore
109 307 m 1
 175 324 l 1
 152 381 113 362 109 307 c 1
159 224 m 1
 187 322 59 259 159 224 c 1
209 265 m 1
 187 161 83 197 64 282 c 0
 53 329 88 425 150 407 c 0
 191 397 211 350 225 315 c 1
 250 340 288 407 332 392 c 0
 375 377 374 302 379 265 c 0
 395 147 418 -36 392 -151 c 1
 334 -135 350 -68 350 -18 c 0
 350 103 341 231 317 349 c 1
 309 349 l 1
 290 299 263 267 209 265 c 1
EndSplineSet
EndChar
StartChar: uni0E47
Encoding: 162 3655 32767
OldEncoding: 3655
Width: 0
Flags: HW
Fore
-190 593 m 1
 -159 603 -133 624 -117 656 c 1
 -152 650 -178 630 -190 593 c 1
-101 559 m 1
 -110 553 -106 545 -101 536 c 1
 -96 536 l 1
 -86 561 -101 559 -101 559 c 1
-39 662 m 1
 -35 679 -3 792 20 775 c 0
 32 767 22 746 18 736 c 0
 9 708 -3 644 -30 630 c 0
 -49 620 -73 644 -91 650 c 1
 -86 633 l 1
 -127 587 l 1
 -114 591 -96 599 -83 589 c 0
 -62 572 -71 518 -101 524 c 0
 -123 528 -137 561 -159 570 c 1
 -179 507 l 1
 -237 525 -218 616 -188 655 c 0
 -152 700 -81 690 -39 662 c 1
EndSplineSet
EndChar
StartChar: uni0E48
Encoding: 163 3656 12
OldEncoding: 3656
Width: 0
Flags: HW
Fore
-96 770 m 5
 -71 770 l 5
 -71 745 -71 721 -71 696 c 4
 -71 684 -63 670 -101 669 c 5
 -96 770 l 5
EndSplineSet
EndChar
StartChar: uni0E49
Encoding: 164 3657 13
OldEncoding: 3657
Width: 0
Flags: HW
Fore
-117 769 m 1
 -108 731 l 1
 -102 731 l 1
 -94 750 -98 761 -117 769 c 1
-86 712 m 1
 -70 723 -62 739 -49 753 c 0
 -37 765 -24 783 -11 793 c 0
 -3 798 9 797 9 785 c 0
 8 760 -37 723 -52 706 c 0
 -77 679 -106 659 -136 640 c 0
 -143 635 -161 616 -170 628 c 0
 -185 649 -131 695 -120 709 c 1
 -127 716 -133 724 -136 734 c 0
 -140 746 -143 776 -134 786 c 0
 -104 817 -70 766 -74 737 c 0
 -76 727 -80 720 -86 712 c 1
EndSplineSet
EndChar
StartChar: uni0E4A
Encoding: 165 3658 32767
OldEncoding: 3658
Width: 0
Flags: HW
Fore
-203 665 m 5
 -191 650 l 5
 -203 665 l 5
-70 704 m 5
 -43 715 -32 739 -28 767 c 4
 -27 778 -31 802 -18 807 c 4
 6 817 0 770 0 759 c 4
 -2 713 -26 695 -58 668 c 4
 -68 660 -88 635 -103 646 c 4
 -115 655 -100 673 -100 685 c 132
 -100 697 -109 707 -117 716 c 5
 -123 704 -131 681 -148 683 c 4
 -174 686 -171 742 -205 708 c 4
 -210 703 -212 698 -214 693 c 5
 -189 693 -122 655 -165 626 c 4
 -242 575 -285 781 -171 754 c 4
 -159 751 -152 742 -144 732 c 6
 -140 732 l 6
 -113 759 -80 735 -70 704 c 5
EndSplineSet
EndChar
StartChar: uni0E4B
Encoding: 166 3659 14
OldEncoding: 3659
Width: 0
Flags: HW
HStem: 718 23<-67 -36>
VStem: -89 22<741 743>
Fore
-89 741 m 5
 -89 754 -98 781 -89 792 c 4
 -69 818 -67 749 -67 741 c 5
 -57 741 -6 747 -14 725 c 4
 -19 711 -55 718 -67 718 c 5
 -69 702 -67 636 -78 627 c 4
 -87 621 -97 627 -98 637 c 4
 -99 662 -97 693 -92 718 c 5
 -110 717 -144 697 -159 703 c 4
 -173 709 -161 726 -153 731 c 4
 -133 742 -111 741 -89 741 c 5
EndSplineSet
MinimumDistance: x2,-1 
EndChar
StartChar: uni0E4C
Encoding: 167 3660 15
OldEncoding: 3660
Width: 0
Flags: HW
Fore
-105 674 m 5
 -77 665 l 5
 -77 679 l 5
 -105 674 l 5
-30 753 m 5
 -26 764 -3 842 16 820 c 4
 33 799 -7 736 -16 716 c 5
 -55 727 -102 759 -119 698 c 5
 -108 697 -97 698 -86 696 c 4
 -29 687 -93 620 -136 662 c 4
 -193 717 -84 784 -30 753 c 5
EndSplineSet
EndChar
StartChar: uni0E4D
Encoding: 168 3661 32767
OldEncoding: 3661
Width: 0
Flags: HW
Fore
-91 563 m 5
 -100 528 -89 516 -53 518 c 5
 -91 563 l 5
-106 595 m 4
 -21 629 25 511 -61 474 c 4
 -139 441 -175 567 -106 595 c 4
EndSplineSet
EndChar
StartChar: uni0E4E
Encoding: 169 3662 32767
OldEncoding: 3662
Width: 0
Flags: HW
Fore
-36 589 m 5
 -25 618 -8 650 8 676 c 4
 13 684 25 700 35 692 c 132
 45 684 34 668 30 661 c 4
 14 636 -1 585 -26 570 c 4
 -42 561 -62 580 -80 577 c 5
 -74 567 -45 536 -57 524 c 4
 -64 517 -104 551 -120 549 c 4
 -144 546 -145 520 -132 502 c 4
 -121 487 -100 482 -83 478 c 5
 -94 438 -148 478 -157 501 c 4
 -180 556 -143 559 -109 575 c 4
 -78 591 -72 609 -36 589 c 5
EndSplineSet
EndChar
StartChar: uni0E4F
Encoding: 170 3663 32767
OldEncoding: 3663
Width: 538
Flags: HW
Fore
266 278 m 1
 258 268 249 257 243 245 c 0
 196 146 374 231 266 278 c 1
227 293 m 0
 322 346 373 200 289 155 c 0
 203 109 154 252 227 293 c 0
258 386 m 1
 107 355 64 120 227 69 c 0
 371 24 448 189 390 308 c 0
 365 362 301 360 258 386 c 1
274 429 m 0
 503 443 517 27 289 8 c 0
 23 -13 1 412 274 429 c 0
EndSplineSet
EndChar
StartChar: uni0E50
Encoding: 171 3664 32767
OldEncoding: 3664
Width: 670
Flags: HW
Fore
571 327 m 1
 487 327 416 358 328 354 c 0
 221 350 69 234 115 122 c 0
 158 16 322 19 405 70 c 0
 449 97 488 134 518 173 c 0
 555 221 570 270 571 327 c 1
361 415 m 0
 394 418 427 413 461 409 c 0
 804 374 512 -2 295 -20 c 0
 106 -35 -4 126 92 275 c 0
 151 368 250 403 361 415 c 0
EndSplineSet
EndChar
StartChar: uni0E51
Encoding: 172 3665 32767
OldEncoding: 3665
Width: 508
Flags: HW
Fore
261 253 m 1
 245 259 230 263 214 267 c 0
 79 294 195 94 261 253 c 1
167 305 m 1
 191 312 217 320 242 319 c 0
 369 312 271 120 167 143 c 0
 57 167 61 270 125 343 c 0
 180 405 298 438 374 407 c 0
 517 349 454 133 383 44 c 0
 363 17 334 -34 299 -36 c 0
 265 -38 282 6 294 22 c 0
 339 82 417 157 416 243 c 0
 416 401 240 364 167 305 c 1
EndSplineSet
EndChar
StartChar: uni0E52
Encoding: 173 3666 32767
OldEncoding: 3666
Width: 556
Flags: HW
HStem: 7 49<418 451>
VStem: 90 59<193 257>
Fore
236 329 m 1
 217 280 l 1
 275 290 l 1
 236 329 l 1
51 602 m 1
 129 630 135 544 144 485 c 0
 158 388 149 290 149 192 c 0
 149 161 138 106 158 79 c 0
 175 56 212 65 236 65 c 0
 309 65 379 56 451 56 c 1
 451 161 476 262 422 358 c 1
 397 305 363 248 305 231 c 1
 256 173 l 5
 256 212 l 1
 117 213 160 414 265 364 c 0
 292 351 313 329 334 309 c 1
 350 365 431 474 486 385 c 0
 524 323 536 95 504 30 c 0
 490 1 448 7 422 7 c 0
 341 7 268 15 187 5 c 0
 158 2 122 -10 104 20 c 0
 72 70 90 165 90 222 c 0
 90 355 70 472 51 602 c 1
EndSplineSet
MinimumDistance: x5,-1 
EndChar
StartChar: uni0E53
Encoding: 174 3667 32767
OldEncoding: 3667
Width: 526
Flags: HW
Fore
141 56 m 1
 205 45 l 1
 215 56 l 1
 192 99 166 96 141 56 c 1
247 269 m 1
 261 298 275 327 295 353 c 0
 341 413 414 414 454 346 c 0
 501 263 530 -18 407 -33 c 1
 414 56 438 144 420 235 c 0
 415 262 404 322 365 316 c 0
 310 306 290 190 226 168 c 1
 119 313 l 1
 119 135 l 1
 177 154 320 151 252 45 c 0
 205 -24 115 14 74 71 c 0
 -27 213 126 510 237 269 c 1
 247 269 l 1
EndSplineSet
EndChar
StartChar: uni0E54
Encoding: 175 3668 32767
OldEncoding: 3668
Width: 568
Flags: HW
Fore
232 297 m 1
 241 248 254 205 300 190 c 1
 348 274 323 321 232 297 c 1
320 105 m 2
 293 69 248 9 203 6 c 0
 66 -6 36 209 81 307 c 0
 126 407 248 435 339 404 c 0
 376 391 426 338 464 367 c 0
 543 427 505 588 603 628 c 1
 596 531 561 274 437 283 c 0
 341 290 273 414 173 326 c 0
 119 276 90 94 193 82 c 0
 216 79 241 105 261 116 c 1
 244 147 215 173 201 206 c 0
 109 431 529 296 339 180 c 1
 339 169 l 1
 380 152 483 134 498 81 c 0
 520 1 349 86 329 105 c 2
 320 105 l 2
EndSplineSet
EndChar
StartChar: uni0E55
Encoding: 176 3669 32767
OldEncoding: 3669
Width: 643
Flags: HW
Fore
428 538 m 1
 426 494 428 475 470 462 c 1
 428 538 l 1
271 342 m 1
 142 355 93 193 166 91 c 0
 190 57 242 43 260 95 c 0
 273 134 229 174 223 211 c 0
 214 263 249 300 271 342 c 1
281 266 m 1
 327 264 368 255 396 298 c 1
 343 312 317 313 281 266 c 1
532 494 m 1
 720 614 l 1
 697 514 610 493 548 428 c 0
 449 325 468 176 281 222 c 1
 317 91 525 218 543 81 c 0
 553 10 382 72 355 70 c 0
 295 66 276 -10 208 -1 c 0
 62 19 41 250 120 352 c 0
 218 480 393 303 470 418 c 1
 355 473 l 1
 375 586 498 614 532 494 c 1
EndSplineSet
EndChar
StartChar: uni0E56
Encoding: 177 3670 32767
OldEncoding: 3670
Width: 601
Flags: HW
Fore
292 120 m 1
 373 131 l 1
 373 152 l 1
 333 163 306 163 292 120 c 1
343 44 m 1
 447 51 484 138 498 238 c 0
 504 285 504 350 453 366 c 0
 385 386 318 314 276 268 c 0
 256 246 230 205 199 234 c 0
 143 289 111 377 53 436 c 0
 38 451 19 470 30 494 c 0
 50 530 90 503 111 485 c 0
 166 438 206 384 232 314 c 1
 279 354 332 403 393 418 c 0
 644 476 566 65 413 -6 c 0
 291 -64 173 130 312 202 c 0
 418 257 486 71 343 66 c 1
 343 44 l 1
EndSplineSet
EndChar
StartChar: uni0E57
Encoding: 178 3671 32767
OldEncoding: 3671
Width: 796
Flags: HW
Fore
175 142 m 1
 139 83 l 1
 171 -12 269 110 175 142 c 1
540 166 m 1
 641 256 679 379 699 510 c 0
 709 577 674 664 740 701 c 1
 805 534 755 292 641 154 c 0
 596 100 426 -54 387 71 c 1
 506 135 492 257 457 368 c 1
 428 332 396 296 390 249 c 0
 387 225 402 171 372 159 c 0
 332 145 307 237 289 260 c 0
 245 312 198 304 139 297 c 1
 139 201 l 1
 263 216 332 53 209 -1 c 0
 167 -18 111 -5 88 35 c 0
 19 163 52 402 234 377 c 0
 269 373 292 359 316 332 c 2
 328 332 l 1
 475 542 570 332 540 166 c 1
EndSplineSet
EndChar
StartChar: uni0E58
Encoding: 179 3672 32767
OldEncoding: 3672
Width: 730
Flags: HW
Fore
311 117 m 1
 354 64 l 1
 397 54 l 1
 430 149 l 1
 376 178 330 185 311 117 c 1
505 298 m 1
 522 389 599 539 688 575 c 1
 704 493 613 370 572 298 c 0
 556 270 532 233 494 233 c 0
 434 233 403 321 343 336 c 0
 160 381 120 186 171 64 c 1
 225 107 262 197 333 218 c 0
 487 264 491 -13 387 -11 c 0
 341 -10 297 54 257 75 c 1
 216 -76 91 8 67 128 c 0
 37 277 201 443 354 409 c 0
 419 394 454 335 505 298 c 1
EndSplineSet
EndChar
StartChar: uni0E59
Encoding: 180 3673 32767
OldEncoding: 3673
Width: 781
Flags: HW
Fore
252 88 m 1
 85 87 217 -31 252 88 c 1
591 348 m 1
 620 439 646 625 750 651 c 1
 760 567 694 437 662 358 c 0
 649 329 633 288 599 279 c 0
 534 260 488 346 411 326 c 1
 435 222 517 120 485 12 c 1
 421 47 419 130 375 185 c 0
 259 332 59 357 125 120 c 1
 167 134 218 153 261 134 c 0
 312 111 312 41 270 9 c 0
 224 -27 127 -17 88 26 c 0
 -31 162 40 396 230 366 c 0
 273 358 310 337 347 315 c 1
 385 450 509 399 591 348 c 1
EndSplineSet
EndChar
StartChar: uni0E5A
Encoding: 181 3674 32767
OldEncoding: 3674
Width: 502
Flags: HW
VStem: 268 42<38 72 93 168> 358 49<263 361>
Fore
97 380 m 0
 45 356 97 271 149 296 c 0
 212 325 146 404 97 380 c 0
261 359 m 1
 240 336 220 310 196 289 c 0
 182 278 167 267 149 262 c 0
 -6 216 36 485 163 407 c 0
 182 395 197 375 212 359 c 1
 250 447 299 411 302 332 c 0
 306 253 310 174 310 95 c 0
 310 68 317 27 304 2 c 0
 295 -16 275 -9 270 7 c 0
 260 40 268 82 268 115 c 0
 268 149 269 183 268 217 c 0
 265 264 261 311 261 359 c 1
400 420 m 1
 410 369 407 317 407 264 c 0
 407 228 414 192 414 156 c 0
 414 133 418 111 420 88 c 0
 421 75 426 -21 390 6 c 0
 370 22 379 72 377 95 c 0
 368 175 358 264 358 346 c 0
 358 380 362 412 400 420 c 1
EndSplineSet
MinimumDistance: x14,-1 
EndChar
StartChar: uni0E5B
Encoding: 182 3675 32767
OldEncoding: 3675
Width: 694
Flags: HW
Fore
422 258 m 1
 452 331 468 382 544 408 c 0
 562 414 616 433 620 400 c 0
 626 366 556 365 537 355 c 0
 464 319 485 223 392 218 c 1
 384 151 376 59 293 90 c 1
 282 17 198 -115 121 -29 c 0
 72 26 64 124 58 194 c 0
 53 262 118 452 205 359 c 0
 268 292 194 226 194 329 c 1
 81 326 93 174 118 90 c 0
 127 59 139 2 179 -1 c 0
 269 -8 255 164 255 218 c 0
 255 238 250 285 278 289 c 0
 316 297 307 154 316 130 c 1
 331 130 l 1
 351 198 361 445 407 258 c 1
 422 258 l 1
EndSplineSet
EndChar
StartChar: endash
Encoding: 183 8211 -1
OldEncoding: 8211
Width: 513
Flags: HW
Fore
36 239 m 1
 86 240 139 245 189 252 c 0
 223 256 298 245 332 249 c 4
 370 254 404 261 443 259 c 4
 453 258 485 248 466 232 c 4
 448 217 405 226 385 226 c 4
 316 222 205 221 136 216 c 0
 103 213 48 194 36 239 c 1
EndSplineSet
EndChar
StartChar: emdash
Encoding: 184 8212 -1
OldEncoding: 8212
Width: 561
Flags: HW
Fore
26 247 m 5
 76 248 129 253 179 260 c 4
 213 264 330 244 364 248 c 4
 402 253 436 260 475 258 c 4
 485 257 517 247 498 231 c 4
 480 216 437 225 417 225 c 4
 348 221 195 229 126 224 c 4
 93 221 38 202 26 247 c 5
EndSplineSet
EndChar
StartChar: quoteleft
Encoding: 185 8216 -1
OldEncoding: 8216
Width: 256
Flags: HW
Fore
178.058 391.11 m 1
 161.25 384.667 l 1
 136.646 404.151 31.335 544.773 72 570 c 0
 123.729 602.682 175.365 423.277 178.058 391.11 c 1
EndSplineSet
EndChar
StartChar: quoteright
Encoding: 186 8217 -1
OldEncoding: 8217
Width: 250
Flags: HW
Fore
93 393 m 0
 45.3838 403.521 127.058 558.735 171.312 555.048 c 0
 231.51 546.912 139.856 383.13 93 393 c 0
EndSplineSet
EndChar
StartChar: quotedblleft
Encoding: 187 8220 -1
OldEncoding: 8220
Width: 277
Flags: HW
Fore
131.019 600.762 m 1
 148.095 606.454 l 1
 171.812 585.899 270.791 440.75 229.049 417.35 c 0
 175.923 386.992 132.283 568.507 131.019 600.762 c 1
57.3369 543.524 m 0
 90.8574 578.942 181.931 429.05 156 393 c 0
 118.053 345.565 24.7656 508.423 57.3369 543.524 c 0
EndSplineSet
EndChar
StartChar: quotedblright
Encoding: 188 8221 -1
OldEncoding: 8221
Width: 316
Flags: HW
Fore
256.577 558.338 m 1
 270.455 546.874 l 1
 265.594 515.868 194.968 355.005 153 378 c 0
 99.0996 406.961 229.896 540.17 256.577 558.338 c 1
168.989 590.483 m 0
 216.789 580.83 137.95 424.157 93.6367 427.04 c 0
 33.2998 434.079 121.961 599.501 168.989 590.483 c 0
EndSplineSet
EndChar
StartChar: bullet
Encoding: 189 8226 -1
OldEncoding: 8226
Width: 535
Flags: HW
Fore
210 336 m 4
 346 375 443 159 318 132 c 4
 165 99 95 305 210 336 c 4
EndSplineSet
EndChar
StartChar: ellipsis
Encoding: 190 8230 -1
OldEncoding: 8230
Width: 502
Flags: W
Fore
169 70 m 1
 166 58 163 47 156 36 c 0
 98 -50 65 119 138 89 c 0
 149 84 159 77 169 70 c 1
403 61 m 1
 400 49 397 38 390 27 c 0
 332 -59 299 110 372 80 c 0
 383 75 393 68 403 61 c 1
284 65 m 1
 281 53 278 42 271 31 c 0
 213 -55 180 114 253 84 c 0
 264 79 274 72 284 65 c 1
EndSplineSet
LCarets: 0 255 '    ' 2 0 0 
Ligature: 8 2 'liga' period period period
EndChar
StartChar: uniF000
Encoding: 191 61440 32767
OldEncoding: 8482
Width: 610
Flags: HW
HStem: 372 20G<75 85> 383 20G<117 126>
Fore
250 657 m 1
 245 686 284 686 310 688 c 0
 374 694 430 675 474 633 c 0
 509 599 529 547 542 505 c 0
 575 398 574 283 559 173 c 0
 553 133 564 81 540 45 c 1
 523 59 533 73 534 92 c 0
 537 131 541 169 546 208 c 0
 562 330 549 471 488 583 c 0
 445 662 341 696 250 657 c 1
98 587 m 1
 101 622 139 654 181 657 c 1
 181 641 l 1
 98 587 l 1
71 575 m 1
 76 561 66 547 71 532 c 0
 85 481 130 450 181 427 c 1
 181 419 l 1
 100 411 -6 522 71 575 c 1
190 559 m 1
 199 559 l 1
 219 524 231 474 273 454 c 1
 273 446 l 1
 216 435 176 520 190 559 c 1
406 442 m 1
 363 432 330 454 310 485 c 0
 299 502 280 527 310 536 c 1
 333 494 358 468 406 446 c 1
 406 442 l 1
117 403 m 1
 126 403 l 1
 176 321 137 220 225 148 c 0
 279 103 317 128 365 162 c 0
 371 166 406 197 412 179 c 0
 417 164 389 150 379 142 c 0
 341 114 312 89 259 105 c 0
 163 133 144 222 127 294 c 0
 119 327 105 370 117 403 c 1
287 361 m 1
 282 413 364 399 374 357 c 1
 340 352 327 391 296 361 c 1
 287 361 l 1
75 392 m 1
 85 392 l 1
 103 263 l 1
 115 123 l 1
 158 64 l 1
 124 60 98 98 93 123 c 0
 78 182 85 246 80 306 c 0
 77 333 64 367 75 392 c 1
163 349 m 1
 169 379 212 407 248 386 c 0
 257 380 271 361 256 353 c 0
 243 347 231 369 218 370 c 0
 198 371 183 352 163 349 c 1
466 388 m 1
 489 381 488 355 492 337 c 0
 507 284 507 232 507 177 c 1
 487 191 494 223 494 244 c 0
 493 292 471 339 466 388 c 1
420 384 m 1
 443 371 446 332 447 310 c 0
 451 250 468 191 459 131 c 0
 455 107 454 55 415 60 c 1
 449 132 443 192 433 267 c 0
 427 306 409 345 420 384 c 1
232 267 m 1
 273 251 l 1
 337 267 l 1
 311 229 234 201 232 267 c 1
135 201 m 1
 162 181 163 155 163 127 c 1
 137 141 135 176 135 201 c 1
EndSplineSet
Ligature: 8 2 'liga' T M
LCarets: 0 255 '    ' 1 0 
EndChar
StartChar: uniF001
Encoding: 192 61441 32767
OldEncoding: 9312
Width: 436
Flags: HW
HStem: 428 20G<135 154>
Fore
187 135 m 1
 215 149 233 203 257 211 c 0
 276 216 273 191 269 181 c 0
 257 151 217 95 177 110 c 0
 151 121 123 200 134 227 c 0
 144 251 161 213 163 205 c 0
 166 195 168 186 171 177 c 0
 175 162 181 149 187 135 c 1
276 504 m 1
 271 483 271 470 294 466 c 1
 285 504 l 1
 276 504 l 1
131 495 m 1
 121 462 l 1
 145 471 l 1
 131 495 l 1
135 448 m 1
 146 415 141 386 103 378 c 1
 117 317 l 1
 126 317 l 1
 154 354 l 1
 154 448 l 1
 135 448 l 1
299 354 m 1
 308 406 l 1
 283 394 271 371 299 354 c 1
355 546 m 1
 370 510 338 485 330 452 c 0
 320 417 335 381 319 345 c 0
 308 320 282 321 266 340 c 0
 238 376 263 410 259 447 c 0
 257 466 241 478 247 499 c 0
 260 546 303 527 318 495 c 1
 355 546 l 1
220 541 m 1
 231 509 190 489 180 462 c 0
 167 424 196 282 117 293 c 0
 65 300 56 406 103 424 c 1
 93 443 l 1
 117 448 l 1
 83 490 140 562 163 495 c 1
 220 541 l 1
238 593 m 1
 264 583 280 585 294 611 c 1
 270 613 251 616 238 593 c 1
84 574 m 1
 111 546 136 580 159 597 c 1
 131 609 105 592 84 574 c 1
327 607 m 1
 315 598 303 588 290 581 c 0
 276 572 205 560 218 596 c 0
 234 643 306 650 327 607 c 1
65 546 m 1
 68 585 122 661 165 613 c 0
 191 584 133 553 112 546 c 0
 97 541 81 545 65 546 c 1
EndSplineSet
EndChar
StartChar: uniF002
Encoding: 193 61442 32767
OldEncoding: 9313
Width: 661
Flags: HW
HStem: 396 20G<464 468>
Fore
501 342 m 1
 518 371 562 389 594 397 c 1
 599 374 l 1
 501 342 l 1
59 360 m 1
 84 379 102 391 134 383 c 1
 134 374 l 1
 110 363 82 345 59 360 c 1
520 267 m 1
 535 296 566 316 599 309 c 1
 581 286 549 265 520 267 c 1
371 430 m 1
 345 349 369 224 399 146 c 1
 408 146 l 1
 445 232 461 322 468 416 c 1
 464 416 l 1
 449 378 431 342 415 304 c 0
 412 297 399 269 388 280 c 0
 369 295 448 385 399 393 c 1
 396 413 390 423 371 430 c 1
450 416 m 1
 453 432 473 454 487 433 c 0
 496 420 492 397 490 383 c 0
 484 346 482 309 473 272 c 0
 468 247 463 222 455 197 c 0
 438 140 393 86 363 170 c 0
 342 227 334 312 334 373 c 0
 334 396 339 450 366 456 c 0
 404 464 412 413 436 397 c 1
 450 416 l 1
45 449 m 1
 76 452 118 451 129 416 c 1
 102 417 56 420 45 449 c 1
264 472 m 1
 272 496 310 560 326 504 c 0
 345 439 314 315 291 253 c 0
 276 212 236 191 209 235 c 0
 169 298 148 416 154 490 c 0
 161 592 236 527 264 472 c 1
EndSplineSet
EndChar
StartChar: uniF003
Encoding: 194 61443 32767
OldEncoding: 9314
Width: 577
Flags: HW
Fore
419 156 m 1
 410 216 l 1
 375 199 387 168 419 156 c 1
138 193 m 1
 152 133 l 1
 184 154 166 178 138 193 c 1
341 174 m 1
 349 188 358 199 368 211 c 0
 373 219 380 227 387 233 c 0
 442 276 464 149 423 136 c 0
 398 128 363 165 341 174 c 1
221 188 m 1
 219 173 212 164 204 151 c 0
 198 142 192 132 184 125 c 0
 104 51 85 283 166 202 c 0
 175 192 184 180 194 170 c 1
 221 188 l 1
161 520 m 1
 138 474 136 412 146 363 c 0
 149 345 154 320 172 311 c 0
 219 289 292 302 341 306 c 0
 366 308 395 295 406 326 c 1
 415 322 l 1
 424 525 l 1
 346 455 l 1
 336 529 l 1
 240 452 l 1
 161 520 l 1
235 474 m 1
 269 521 343 598 369 506 c 1
 382 519 403 551 424 549 c 0
 451 546 451 512 452 492 c 0
 454 444 461 352 436 309 c 0
 403 252 312 309 286 253 c 0
 274 225 287 162 292 133 c 0
 294 119 305 98 298 84 c 0
 284 55 270 105 269 114 c 0
 262 167 258 223 258 276 c 1
 216 279 175 274 145 309 c 0
 108 349 93 515 157 542 c 0
 192 557 223 499 235 474 c 1
EndSplineSet
EndChar
StartChar: uniF004
Encoding: 195 61444 32767
OldEncoding: 9315
Width: 853
Flags: HW
Fore
637 225 m 1
 671 216 682 237 669 267 c 1
 648 259 641 246 637 225 c 1
105 212 m 1
 212 155 357 127 476 115 c 1
 453 155 398 224 357 244 c 0
 334 254 307 244 284 240 c 0
 229 233 154 241 105 212 c 1
476 239 m 1
 494 327 606 297 664 301 c 0
 698 303 725 322 761 316 c 0
 772 314 828 279 796 270 c 0
 780 266 765 286 752 291 c 0
 733 297 710 288 692 285 c 1
 697 269 706 252 701 235 c 0
 693 197 625 184 613 226 c 0
 607 244 627 267 637 280 c 1
 568 300 536 248 476 239 c 1
412 432 m 1
 317 387 231 320 146 257 c 1
 146 253 l 1
 375 280 l 1
 380 327 429 385 412 432 c 1
545 69 m 1
 503 73 462 94 421 104 c 0
 390 111 356 107 325 113 c 0
 283 120 242 139 201 150 c 0
 162 160 97 168 73 206 c 0
 50 241 123 273 146 289 c 0
 227 345 340 462 444 464 c 1
 444 387 415 315 389 244 c 1
 434 220 475 163 508 124 c 0
 522 107 541 92 545 69 c 1
EndSplineSet
EndChar
StartChar: uniF005
Encoding: 196 61445 32767
OldEncoding: 9316
Width: 949
Flags: HW
DStem: 30 208 53 185 43 107 57 148 725 333 767 259 744 139 772 213
Fore
569 134 m 0
 517 126 500 7 564 21 c 0
 613 32 626 143 569 134 c 0
288 102 m 1
 280 126 260 125 250 102 c 0
 245 91 242 77 240 65 c 0
 238 56 239 47 243 38 c 0
 285 -60 366 119 288 102 c 1
850 171 m 1
 862 193 879 189 901 185 c 1
 901 147 919 100 873 84 c 1
 859 107 l 1
 859 116 l 1
 885 133 900 171 854 167 c 1
 850 171 l 1
71 195 m 1
 66 181 l 1
 53 185 l 1
 57 148 l 1
 76 159 79 175 71 195 c 1
836 254 m 1
 864 250 l 1
 854 231 l 1
 836 254 l 1
767 259 m 1
 772 213 l 1
 792 230 793 248 767 259 c 1
799 305 m 1
 818 305 l 1
 818 287 l 1
 799 305 l 1
394 296 m 1
 384 305 l 1
 358 290 344 282 343 250 c 1
 417 264 l 1
 421 310 l 1
 394 296 l 1
818 333 m 1
 840 347 874 363 898 342 c 0
 912 330 908 312 911 296 c 0
 918 259 937 212 882 204 c 1
 901 268 l 1
 873 254 l 1
 903 318 879 326 818 328 c 1
 818 333 l 1
384 322 m 0
 421 327 472 281 440 244 c 0
 432 235 361 223 348 222 c 0
 315 218 315 280 325 299 c 0
 334 317 367 319 384 322 c 0
260 383 m 1
 263 362 288 297 274 280 c 0
 265 268 245 276 232 277 c 0
 211 278 117 282 105 265 c 0
 94 251 103 224 103 208 c 0
 108 164 112 115 113 70 c 1
 142 73 178 73 205 87 c 0
 227 98 237 125 260 137 c 0
 301 159 340 117 343 79 c 1
 394 101 451 87 500 106 c 0
 529 118 538 158 573 160 c 0
 603 161 609 133 630 121 c 0
 659 104 718 124 744 139 c 1
 725 333 l 1
 666 333 603 322 546 306 c 0
 531 302 493 287 480 299 c 0
 458 319 477 384 477 411 c 1
 260 383 l 1
80 218 m 1
 80 237 73 263 80 281 c 0
 97 329 207 281 240 305 c 0
 266 325 214 380 240 402 c 0
 253 413 283 406 300 409 c 0
 350 418 393 431 444 434 c 0
 458 435 484 443 495 431 c 0
 516 407 502 351 500 324 c 1
 557 335 613 341 670 351 c 0
 691 355 723 370 742 353 c 0
 759 337 758 295 758 273 c 1
 830 291 819 188 762 199 c 1
 764 179 776 140 766 122 c 0
 750 93 658 87 629 93 c 1
 625 62 618 27 592 8 c 0
 534 -33 486 29 500 84 c 1
 455 73 402 83 360 65 c 0
 335 54 334 21 314 3 c 0
 263 -45 221 12 209 61 c 1
 182 52 109 30 91 61 c 0
 79 82 86 112 80 135 c 1
 43 107 l 1
 30 208 l 1
 80 218 l 1
EndSplineSet
MinimumDistance: x20,-1 
EndChar
StartChar: uniF006
Encoding: 197 61446 32767
OldEncoding: 9317
Width: 667
Flags: HW
HStem: 452 21G<311 320>
Fore
261 190 m 1
 357 213 l 1
 345 183 291 172 261 168 c 1
 261 190 l 1
527 342 m 1
 518 319 l 1
 522 319 l 1
 527 342 l 1
128 273 m 1
 122 340 65 287 128 273 c 1
146 310 m 1
 166 232 235 64 330 57 c 0
 425 48 470 220 481 291 c 1
 459 276 442 251 417 241 c 0
 372 222 330 269 320 310 c 1
 316 310 l 1
 270 215 203 263 146 310 c 1
412 626 m 1
 426 665 501 654 531 645 c 1
 531 635 l 1
 412 626 l 1
288 626 m 1
 271 624 255 625 238 623 c 0
 226 623 213 622 201 621 c 0
 85 603 267 693 288 626 c 1
348 530 m 1
 357 584 478 615 522 594 c 1
 430 561 l 1
 348 530 l 1
330 525 m 1
 273 530 223 557 164 551 c 0
 154 550 129 548 132 565 c 0
 135 584 171 576 183 577 c 0
 231 577 302 571 330 525 c 1
330 438 m 1
 357 455 375 482 403 500 c 0
 442 524 492 533 536 543 c 0
 547 546 625 558 615 531 c 0
 610 518 554 522 541 518 c 0
 497 504 453 496 412 475 c 0
 384 460 363 438 334 424 c 1
 330 438 l 1
307 466 m 1
 272 456 237 479 201 479 c 0
 176 479 148 476 123 471 c 0
 109 468 30 438 30 461 c 0
 30 481 72 486 86 488 c 0
 144 499 198 512 256 496 c 0
 281 490 325 484 320 452 c 1
 311 452 l 1
 307 466 l 1
114 429 m 1
 138 415 125 383 147 371 c 0
 190 348 293 375 320 333 c 1
 339 333 l 1
 369 377 461 404 499 365 c 1
 501 380 502 415 516 424 c 0
 545 444 527 373 522 365 c 1
 545 360 561 349 549 323 c 0
 540 303 517 296 508 277 c 0
 472 198 433 -22 297 40 c 0
 281 48 265 57 252 69 c 0
 227 89 209 122 193 149 c 0
 174 182 146 222 137 259 c 1
 70 241 42 339 119 333 c 1
 114 429 l 1
EndSplineSet
EndChar
StartChar: uniF007
Encoding: 198 61447 32767
OldEncoding: 9318
Width: 544
Flags: HW
Fore
378 460 m 1
 368 437 346 406 329 388 c 0
 318 377 308 387 310 400 c 0
 314 436 371 507 410 476 c 0
 441 452 454 388 456 350 c 1
 408 354 423 438 378 460 c 1
72 378 m 1
 87 410 136 494 182 472 c 0
 214 457 218 416 227 387 c 0
 230 377 240 359 229 350 c 128
 218 341 208 354 205 364 c 0
 197 386 197 437 168 444 c 0
 142 451 108 386 95 368 c 1
 72 378 l 1
187 231 m 1
 239 213 217 96 273 90 c 0
 321 85 350 190 360 222 c 0
 364 232 371 272 389 262 c 0
 408 252 385 208 380 195 c 0
 360 142 288 -13 226 94 c 0
 215 113 209 134 202 154 c 0
 193 179 187 204 187 231 c 1
EndSplineSet
EndChar
StartChar: uni0E10.descless
Encoding: 199 63232 32767
OldEncoding: 63232
Width: 481
Flags: HW
Fore
157 207 m 1
 203 94 311 287 195 231 c 0
 182 224 169 215 157 207 c 1
402 481 m 1
 446 467 435 367 392 355 c 0
 351 342 324 405 271 385 c 1
 314 359 320 311 325 267 c 0
 340 172 345 80 333 -15 c 1
 264 -10 282 117 271 170 c 1
 251 161 232 147 210 143 c 0
 65 117 144 332 279 259 c 1
 264 341 l 1
 241 336 203 306 182 313 c 0
 140 329 195 391 210 404 c 0
 265 449 322 449 379 407 c 1
 402 481 l 1
EndSplineSet
EndChar
StartChar: uni0E0D.descless
Encoding: 214 63247 32767
OldEncoding: 63247
Width: 652
Flags: HW
Fore
208 57 m 29
 191 44 l 21
 185 42 190 27 190 27 c 5
 211 28 228 33 233 49 c 13
 233 63 l 29
 208 57 l 29
420 39 m 5
 544 102 524 150 520 272 c 4
 519 309 478 417 529 433 c 4
 572 445 573 352 573 328 c 4
 575 204 618 98 502 21 c 4
 478 5 451 -17 420 -13 c 4
 370 -9 373 48 367 86 c 4
 355 159 376 319 292 352 c 4
 241 373 175 314 127 300 c 5
 138 253 132 142 169 111 c 4
 199 86 255 137 277 91 c 4
 321 -6 143 -33 91 -7 c 5
 91 11 l 5
 127 21 l 5
 118 85 109 154 89 216 c 4
 81 242 53 279 61 306 c 4
 85 390 303 443 362 381 c 4
 431 309 419 132 420 39 c 5
EndSplineSet
EndChar
StartChar: uni0E31.left
Encoding: 215 63248 32767
OldEncoding: 63248
Width: 0
Flags: HW
Fore
-314 568 m 4
 -339 557 -347 495 -309 509 c 4
 -275 522 -279 584 -314 568 c 4
-261 506 m 5
 -220 528 -185 604 -147 615 c 4
 -107 627 -142 566 -149 557 c 4
 -183 512 -328 390 -359 506 c 4
 -380 581 -275 652 -253 563 c 4
 -249 544 -257 524 -261 506 c 5
EndSplineSet
EndChar
StartChar: uni0E4D.left
Encoding: 216 63249 32767
OldEncoding: 63249
Width: 0
Flags: HW
Fore
-225 563 m 5
 -234 528 -223 516 -187 518 c 5
 -225 563 l 5
-240 595 m 4
 -155 629 -109 511 -195 474 c 4
 -273 441 -309 567 -240 595 c 4
EndSplineSet
EndChar
StartChar: uni0E47.left
Encoding: 217 63250 32767
OldEncoding: 63250
Width: 0
Flags: HW
Fore
-312 593 m 5
 -281 603 -255 624 -239 656 c 5
 -274 650 -300 630 -312 593 c 5
-223 559 m 5
 -232 553 -228 545 -223 536 c 5
 -218 536 l 5
 -208 561 -223 559 -223 559 c 5
-161 662 m 5
 -157 679 -125 792 -102 775 c 4
 -90 767 -100 746 -104 736 c 4
 -113 708 -125 644 -152 630 c 4
 -171 620 -195 644 -213 650 c 5
 -208 633 l 5
 -249 587 l 5
 -236 591 -218 599 -205 589 c 4
 -184 572 -193 518 -223 524 c 4
 -245 528 -259 561 -281 570 c 5
 -301 507 l 5
 -359 525 -340 616 -310 655 c 4
 -274 700 -203 690 -161 662 c 5
EndSplineSet
EndChar
